<svg width="571" height="214" viewBox="0 0 571 214" fill="none" xmlns="http://www.w3.org/2000/svg">
<path d="M256.457 83.1085C256.323 85.5884 254.733 87.3327 252.284 87.7272C251.319 87.8849 250.368 87.7673 249.411 87.6136C248.964 87.5435 248.508 87.2766 247.993 87.4542C248.053 88.0762 248.489 88.4337 248.772 88.8428C249.004 89.174 249.222 89.4954 249.442 89.8287L249.444 89.8408C249.882 90.4955 250.308 91.1523 250.714 91.8374C251.714 93.4972 252.577 95.2305 253.213 97.0784C253.641 98.3057 254.034 99.5513 253.91 100.888C253.748 102.641 252.808 103.713 251.065 104.032C249.77 104.285 248.503 104.137 247.227 103.654C246.871 104.449 246.861 105.233 246.767 105.969C245.827 114.496 245.463 123.058 245.821 131.629C246.094 138.243 247.261 144.723 249.045 151.108C250.138 155.058 250.945 159.072 250.855 163.207C250.785 165.762 249.807 167.957 247.928 169.752C244.984 172.541 240.301 171.878 238.192 169.062C236.992 167.462 236.192 165.668 235.481 163.821C235.117 162.88 234.823 161.915 234.471 160.972C233.927 159.505 233.83 159.448 232.391 159.875C231.188 160.224 230.004 160.618 228.802 160.979C224.702 162.211 220.609 163.478 216.405 164.331C214.26 164.759 212.125 164.962 209.945 164.776C209.72 164.766 209.468 164.674 209.163 164.913C209.114 167.093 208.837 169.325 208.434 171.543C208.011 173.925 207.337 176.227 205.975 178.278C203.426 182.114 199.652 182.383 196.633 178.908C194.925 176.964 193.813 174.666 192.873 172.289C192.324 170.934 191.831 169.545 191.328 168.17C191.206 167.832 191.072 167.495 190.951 167.157C190.598 166.214 190.556 166.185 189.6 166.465C180.894 168.943 172.111 171.124 163.301 173.149C155.55 174.925 147.814 176.711 140.073 178.473C137.354 179.089 134.607 179.623 131.833 180C130.621 180.164 130.613 180.191 130.464 181.383C130.389 181.942 130.325 182.499 130.262 183.056C130.04 185.031 129.832 187.015 129.289 188.934C128.924 190.239 128.464 191.499 127.763 192.664C127.188 193.622 126.453 194.446 125.583 195.145C122.639 197.513 118.904 197.365 116.357 194.601C113.611 191.624 111.921 188.089 111.549 184.011C111.361 181.96 111.379 181.92 109.27 182.13C106.967 182.363 104.686 182.728 102.41 183.117C97.9924 183.883 93.6229 184.852 89.1585 185.354C87.9646 185.478 86.7607 185.616 85.5633 185.579C84.8279 185.559 84.5434 185.845 84.5405 186.602C84.5202 189.583 83.8157 192.412 82.5011 195.088C81.6912 196.756 80.6202 198.211 79.2825 199.489C76.8419 201.829 72.6529 202.345 69.673 199.868C67.2642 197.886 65.5243 195.476 64.1149 192.76C62.9347 190.499 61.8345 188.199 60.6445 185.953C58.166 181.254 55.0647 176.963 51.9294 172.69C47.8622 167.142 44.3987 161.29 42.5143 154.613C40.7416 148.288 39.6512 141.893 39.8856 135.413C39.9532 133.404 40.1672 131.382 40.5156 129.348C40.6226 128.758 40.7317 128.181 40.8528 127.601C42.3704 120.448 45.4846 113.907 49.4861 107.756C51.8703 104.11 54.565 100.819 57.5683 97.87C62.3007 93.1898 67.7641 89.3484 73.8729 86.2119C79.7657 83.188 85.902 80.8406 92.184 78.8273C98.466 76.814 104.73 74.7668 110.729 71.9969C113.585 70.6746 116.278 69.1328 118.84 67.3412C119.451 66.9358 120.044 66.4964 120.622 66.0471C120.778 65.9452 120.919 65.8334 121.073 65.7194C121.392 65.4895 121.681 65.2277 121.943 64.9581C122.142 64.7493 122.327 64.5307 122.498 64.3021C127.128 58.2008 131.773 52.1094 136.05 45.7603C137.241 43.9997 138.379 42.2235 139.432 40.3878C140.312 38.831 141.247 37.3138 142.511 36.0365C144.582 33.9221 146.14 33.6845 148.693 35.1449C152.362 37.2396 155.513 39.9838 158.494 42.9567C159.274 43.7246 160.123 44.4558 160.744 45.376C161.066 45.865 161.472 45.9175 161.991 45.8383C170.416 44.5762 178.918 43.8958 187.404 43.0569C191.478 42.6612 195.565 42.4119 199.658 42.4097C201.393 42.4014 201.122 42.412 201.57 41.0801C202.77 37.5438 204.448 34.2581 206.646 31.2407C207.262 30.3753 207.921 29.5396 208.761 28.8829C210.762 27.2894 212.951 27.2508 214.994 28.7762C216.321 29.758 217.437 30.9507 218.479 32.2183C221.777 36.2146 224.461 40.6042 226.594 45.3144C227.064 46.3604 227.733 46.776 228.808 47.033C233.019 48.052 237.139 49.3972 241.083 51.2202C241.989 51.6435 242.865 52.1093 243.716 52.6416C244.229 52.9481 244.722 53.283 245.219 53.6418C245.976 54.2032 246.705 54.819 247.394 55.4914C248.412 56.4781 249.218 57.6014 249.506 59.0268C249.885 60.8952 249.365 62.4507 247.923 63.6975C247.011 64.5034 245.943 65.0638 244.792 65.4281C244.473 65.5215 244.134 65.5689 243.852 65.8668C244.14 66.3742 244.636 66.5845 245.048 66.8839C246.288 67.7942 247.518 68.7187 248.684 69.704C249.223 70.1549 249.751 70.6199 250.272 71.1111C251.089 71.8728 251.878 72.6889 252.613 73.5517C254.289 75.5264 255.499 77.7446 256.177 80.255C256.431 81.2026 256.51 82.1439 256.457 83.1085Z" fill="#F8EADA"/>
<path d="M145.26 53.3165C144.423 53.4268 143.764 53.5555 143.089 53.6C141.738 53.677 140.929 52.8149 141.27 51.5141C141.898 49.0959 142.436 46.6565 143.34 44.3261C143.475 43.9673 143.648 43.6142 143.852 43.2929C144.761 41.9045 146.052 41.6273 147.431 42.5503C147.938 42.895 148.432 43.3042 148.838 43.7784C150.067 45.1869 151.221 46.6705 152.232 48.2538C153.248 49.8611 152.996 50.8236 151.291 51.5707C149.307 52.4169 147.281 53.171 145.26 53.3165Z" fill="#FFBDAE"/>
<path d="M212.95 44.4823C211.907 44.6166 210.864 44.8252 209.809 44.8874C207.99 44.9848 207.19 44.1085 207.509 42.3279C207.898 40.1008 208.556 37.9254 209.552 35.9014C210.965 33.0099 213.104 32.8311 215.06 35.4139C216.289 37.0333 217.214 38.8303 217.85 40.7526C218.46 42.5927 217.604 43.9967 215.693 44.3461C214.792 44.5172 213.887 44.59 212.978 44.713C212.978 44.6387 212.963 44.5545 212.95 44.4823Z" fill="#FFBDAE"/>
<path d="M253.637 68.595C254.086 68.5406 254.471 68.4727 254.849 68.431C255.276 68.3928 255.617 68.5684 255.73 68.9951C255.881 69.5019 255.603 69.8239 255.165 70.0128C254.993 70.0927 254.8 70.1267 254.61 70.1726C248.816 71.3679 243.061 72.7797 237.244 73.8426C237.052 73.8765 236.863 73.9345 236.677 73.9302C236.207 73.9387 235.795 73.7879 235.694 73.2847C235.591 72.7694 235.888 72.4814 236.356 72.3244C236.627 72.2395 236.907 72.1404 237.196 72.0895C242.726 71.0896 248.205 69.8009 253.637 68.595Z" fill="black"/>
<path d="M248.306 50.3931C248.344 50.9572 247.935 51.2402 247.568 51.553C245.626 53.2725 243.669 54.982 241.725 56.6895C239.414 58.7097 237.091 60.732 234.766 62.7423C233.861 63.5221 233.308 63.6197 232.931 63.103C232.59 62.6423 232.762 62.2148 233.643 61.4393C237.801 57.7909 241.96 54.1545 246.12 50.5181C246.443 50.2379 246.776 49.9435 247.149 49.7412C247.699 49.4829 248.255 49.8192 248.306 50.3931Z" fill="black"/>
<path d="M242.112 88.5036C242.215 88.5227 242.404 88.539 242.585 88.5815C247.124 89.4186 251.661 90.2438 256.2 91.0809C257.315 91.2814 257.693 91.5992 257.61 92.1845C257.516 92.7718 257.031 92.9813 255.955 92.7865C251.601 92.0159 247.255 91.2191 242.909 90.4223C242.487 90.3479 242.076 90.1971 241.686 90.0301C241.295 89.851 241.145 89.4928 241.268 89.0619C241.348 88.6755 241.66 88.546 242.112 88.5036Z" fill="black"/>
<path d="M191.334 166.519C191.402 167.115 191.399 167.661 191.328 168.17C191.206 167.832 191.072 167.495 190.951 167.157C190.598 166.214 190.556 166.185 189.6 166.465C180.895 168.943 172.111 171.124 163.301 173.149C155.55 174.925 147.814 176.711 140.073 178.473C137.354 179.089 134.607 179.623 131.833 180C130.621 180.164 130.613 180.191 130.464 181.383C130.389 181.942 130.325 182.499 130.262 183.056C130.161 182.764 130.078 182.431 130.026 182.068C129.423 178.155 130.515 174.638 132.688 171.414C133.847 169.684 135.372 168.273 136.96 166.939C141.428 163.149 146.212 159.886 151.763 157.878C157.85 155.675 164.078 154.342 170.572 154.933C175.577 155.391 180.456 156.466 185.016 158.689C187.5 159.9 189.586 161.53 190.72 164.159C191.04 164.921 191.24 165.704 191.334 166.519Z" fill="#CECECE"/>
<path d="M10.6888 95.1324C9.41727 93.198 8.44513 91.2729 7.80706 89.202C7.12937 86.9769 6.63428 84.7319 6.75492 82.3908C6.78828 81.6654 6.89808 80.9513 7.11049 80.2564C7.58984 78.6832 8.5022 77.8772 10.1575 77.9079C11.1278 77.9229 11.0295 77.506 10.9673 76.8719C10.7327 74.5562 10.7875 72.2639 11.2521 69.9738C11.609 68.1989 12.2886 66.5656 13.4283 65.1489C15.241 62.9064 17.7124 62.5699 20.0682 64.251C21.5161 65.2859 22.4557 66.7454 23.2835 68.2741C24.5528 70.6183 25.2637 73.1725 25.7864 75.7848C26.8953 81.3703 27.4465 87.0292 28.1662 92.6585C28.654 96.4803 29.2019 100.291 30.2432 104.016C31.7916 109.561 34.1263 114.781 36.7732 119.872C38.2887 122.768 39.8382 125.646 41.3559 128.554C41.8448 129.498 42.2636 130.466 42.6825 131.434C43.0235 132.243 43.2102 133.09 43.0798 133.969C42.8241 135.615 41.8552 136.17 40.299 135.576C39.4746 135.263 38.7697 134.853 38.1251 134.223C36.7021 132.836 35.0072 131.808 33.2947 130.819C29.1789 128.444 25.4801 125.548 22.1323 122.181C17.501 117.514 13.2426 112.571 10.0608 106.768C9.22309 105.253 8.45331 103.702 7.86754 102.068C7.59306 101.286 7.40491 100.5 7.3109 99.6854C6.97016 96.979 7.85215 95.7194 10.6888 95.1324Z" fill="#8C8C8C"/>
<path d="M127.076 98.6398C126.365 98.4054 125.896 98.5625 125.424 98.5588C121.716 98.5675 119.605 95.9501 120.483 92.3465C120.997 90.1965 122.123 88.3481 123.499 86.6541C124.742 85.1199 126.196 83.7967 127.845 82.3892C127.376 82.2611 127.038 82.1719 126.7 82.0826C124.124 81.4078 122.977 79.2654 123.86 76.7404C124.249 75.6421 124.814 74.6245 125.506 73.696C128.071 70.2293 131.071 67.1943 134.552 64.6328C134.827 64.4354 135.101 64.226 135.401 64.0986C136.275 63.7088 137.191 63.9814 137.684 64.738C138.157 65.4486 138.073 66.3071 137.422 66.98C137.16 67.2496 136.826 67.4697 136.519 67.6975C133.844 69.695 131.521 72.0649 129.379 74.6258C128.488 75.6887 127.671 76.8251 127.232 78.2794C127.849 78.6794 128.507 78.613 129.167 78.5586C130.905 78.4257 132.566 77.9221 134.257 77.5246C134.674 77.4263 135.113 77.3117 135.535 77.3117C137.015 77.336 137.803 78.8471 137.019 80.1018C136.698 80.6049 136.221 80.9247 135.73 81.2346C133.472 82.6377 131.39 84.2701 129.353 85.9443C127.37 87.5718 125.626 89.43 124.545 91.8163C124.169 92.6393 123.594 93.5968 124.184 94.4107C124.791 95.2466 125.882 94.8929 126.754 94.7763C128.038 94.5995 129.311 94.2883 130.582 94.0394C130.917 93.9679 131.237 93.8866 131.581 93.8633C133.03 93.7814 133.912 94.916 133.516 96.3257C133.329 96.9541 132.913 97.412 132.484 97.8599C130.096 100.427 128.154 103.275 126.923 106.569C126.635 107.327 126.366 108.119 126.22 108.914C125.802 111.257 127.211 112.56 129.505 111.994C130.681 111.7 131.783 111.195 132.795 110.533C134.041 109.718 135.266 108.857 136.482 108.01C137.509 107.295 138.51 107.342 139.167 108.181C139.787 108.953 139.743 110.04 138.839 110.758C136.088 112.955 133.215 115.024 129.665 115.712C125.587 116.506 122.167 113.362 122.479 109.226C122.642 107.125 123.42 105.202 124.318 103.332C125.078 101.734 125.919 100.171 127.076 98.6398Z" fill="#8C8C8C"/>
<path d="M136.611 71.7379C136.688 72.2453 136.309 72.6968 135.766 72.6436C135.489 72.6181 135.218 72.4921 134.942 72.4043C134.024 72.1197 133.117 71.8329 132.197 71.5363C130.907 71.1185 129.616 70.6888 128.326 70.2711C126.1 69.5347 123.89 68.8203 121.65 68.1484C120.719 67.8659 119.779 67.5975 118.84 67.3412C118.293 67.1897 117.745 67.0381 117.199 66.8986C116.913 66.825 116.649 66.7351 116.371 66.6353C115.865 66.4391 115.521 66.1029 115.706 65.5368C115.89 64.9586 116.384 64.9459 116.895 65.0295C116.997 65.0486 117.088 65.0699 117.178 65.0911C118.336 65.3956 119.484 65.7142 120.622 66.047C121.041 66.1716 121.472 66.2941 121.893 66.4308C124.485 67.2019 127.064 68.0373 129.645 68.8848C130.961 69.3103 132.278 69.7479 133.594 70.1734C134.265 70.3901 134.933 70.5947 135.604 70.8113C136.066 70.9657 136.512 71.1724 136.611 71.7379Z" fill="black"/>
<path d="M131.214 88.1966C128.14 88.2796 124.957 88.3818 121.796 88.4677C119.204 88.5403 116.605 88.5767 114.013 88.6492C112.888 88.6738 112.406 88.4735 112.461 87.8684C112.531 87 113.258 86.9711 113.862 86.9514C116.264 86.8505 118.674 86.7978 121.069 86.7351C124.527 86.6464 127.99 86.6561 131.446 86.4188C131.643 86.4089 131.834 86.363 132.023 86.3793C132.501 86.419 132.877 86.6504 132.916 87.1522C132.954 87.654 132.662 87.9661 132.171 88.0651C131.882 88.116 131.601 88.1407 131.214 88.1966Z" fill="black"/>
<path d="M118.324 109.227C118.187 109.226 117.898 109.277 117.607 109.241C117.303 109.208 117.092 108.997 117.015 108.701C116.936 108.392 117.007 108.094 117.263 107.925C117.54 107.74 117.85 107.598 118.169 107.505C122.64 106.195 127.111 104.886 131.596 103.587C131.962 103.485 132.343 103.393 132.722 103.363C133.138 103.327 133.489 103.489 133.593 103.942C133.694 104.37 133.52 104.724 133.112 104.87C132.484 105.105 131.837 105.306 131.202 105.505C127.288 106.666 123.372 107.816 119.442 108.955C119.135 109.046 118.801 109.118 118.324 109.227Z" fill="black"/>
<path d="M163.708 97.2917C159.699 97.5643 156.314 96.164 153.661 93.2202C150.208 89.4002 152.859 84.6652 156.388 83.3607C158.228 82.6766 160.083 82.858 161.925 83.3147C163.963 83.8239 165.811 84.7385 167.397 86.1336C169.274 87.7751 170.468 89.7604 169.836 92.3654C169.19 95.0348 167.194 96.3792 164.706 97.1156C164.386 97.1969 164.042 97.2203 163.708 97.2917Z" fill="#FFBDAE"/>
<path d="M210.433 91.7695C208.85 91.937 207.26 91.9941 205.711 91.5105C200.459 89.8686 200.277 85.0377 202.774 81.6077C203.133 81.1103 203.629 80.6878 204.152 80.3475C206.665 78.701 209.414 77.7573 212.45 77.8794C217.289 78.0931 219.882 82.3872 217.881 86.7967C216.41 89.9961 213.695 91.2689 210.433 91.7695Z" fill="#FFBDAE"/>
<path d="M184.072 81.5684C183.472 82.5301 183.015 83.3177 182.5 84.0536C181.335 85.7478 179.904 87.129 177.941 87.8846C176.836 88.3027 175.766 88.2183 174.72 87.7702C173.766 87.3554 173.363 86.62 173.625 85.8543C173.893 85.0503 174.592 84.6541 175.62 84.994C176.633 85.3239 177.405 84.9893 178.163 84.4338C179.228 83.6505 180 82.6089 180.67 81.4858C181.341 80.3627 181.797 79.1533 182.28 77.9517C182.496 77.4174 182.724 76.881 182.982 76.3764C183.298 75.7749 183.809 75.4367 184.515 75.4983C185.22 75.56 185.624 76.0222 185.869 76.6365C186.007 76.9968 186.075 77.3818 186.165 77.7505C186.479 79.1094 186.865 80.4555 187.447 81.7175C187.669 82.1994 187.902 82.6793 188.212 83.0962C188.974 84.1154 189.932 84.2691 190.972 83.5524C191.249 83.367 191.476 83.1037 191.751 82.9063C192.511 82.3629 193.309 82.3835 193.83 82.9491C194.321 83.4828 194.318 84.24 193.821 84.9356C192.169 87.2489 188.829 87.6519 186.666 85.8002C185.994 85.224 185.509 84.5155 185.124 83.7398C184.777 83.1063 184.476 82.4524 184.072 81.5684Z" fill="black"/>
<path d="M168.46 74.5704C168.632 76.2519 168.339 77.8294 167.397 79.2362C166.101 81.1766 164.184 81.4899 162.307 80.1336C159.86 78.3569 159.227 74.8338 160.9 72.2933C162.348 70.0904 165.447 69.8665 167.235 71.8462C167.931 72.629 168.327 73.5392 168.46 74.5704Z" fill="black"/>
<path d="M163.764 73.5499C163.9 74.3199 163.434 74.9851 162.662 75.1088C161.89 75.2326 161.222 74.7548 161.099 73.9826C160.963 73.2126 161.431 72.5595 162.203 72.4357C162.973 72.3 163.626 72.7678 163.764 73.5499Z" fill="#F8EADA"/>
<path d="M163.221 76.7346C163.304 77.2038 163.027 77.6001 162.555 77.6708C162.084 77.7415 161.686 77.452 161.603 76.9827C161.52 76.5135 161.798 76.1172 162.269 76.0465C162.74 75.9758 163.139 76.2653 163.221 76.7346Z" fill="#F8EADA"/>
<path d="M198.444 72.1117C198.341 70.2568 198.746 68.2625 200.549 66.7411C201.717 65.766 202.828 65.5949 204.133 66.3821C205.812 67.3887 206.79 68.8538 206.762 70.8807C206.752 72.086 206.602 73.2784 206.092 74.398C205.477 75.7595 204.52 76.7346 202.962 76.8356C201.39 76.9267 200.192 76.1827 199.32 74.8974C198.833 74.1769 198.599 73.3375 198.444 72.1117Z" fill="black"/>
<path d="M202.855 69.895C202.99 70.665 202.525 71.3302 201.752 71.4539C200.98 71.5777 200.313 71.0999 200.189 70.3277C200.054 69.5577 200.521 68.9046 201.294 68.7808C202.064 68.645 202.719 69.125 202.855 69.895Z" fill="#F8EADA"/>
<path d="M202.326 73.0896C202.409 73.5588 202.132 73.9551 201.66 74.0258C201.189 74.0965 200.79 73.807 200.708 73.3378C200.625 72.8685 200.902 72.4722 201.374 72.4015C201.833 72.333 202.232 72.6225 202.326 73.0896Z" fill="#F8EADA"/>
<path d="M305.214 44.5187L305.444 44.3784L305.453 44.1094L306.221 22.1228C306.597 11.3598 315.627 2.93937 326.39 3.31523L525.268 10.2602C536.031 10.6361 544.452 19.6659 544.076 30.4289L541.284 110.38C540.908 121.143 531.878 129.564 521.115 129.188L322.237 122.243C311.474 121.867 303.053 112.837 303.429 102.074L304.685 66.096L304.707 65.4915L304.109 65.5845L259.3 72.5536L305.214 44.5187Z" fill="#F8EADA" stroke="#67A359"/>
<path d="M331.506 35.9339L339.257 36.2045C341.291 36.2755 343.076 36.7582 344.614 37.6524C346.17 38.5472 347.361 39.7562 348.186 41.2792C349.011 42.7836 349.391 44.4779 349.325 46.3621C349.259 48.2463 348.762 49.9193 347.833 51.3811C346.905 52.8242 345.633 53.9379 344.018 54.722C342.422 55.5067 340.607 55.8636 338.573 55.7926L330.822 55.5219L331.506 35.9339ZM338.506 54.5015C340.316 54.5647 341.923 54.2659 343.328 53.6052C344.734 52.9259 345.833 51.9556 346.624 50.6945C347.415 49.4333 347.84 47.9726 347.898 46.3122C347.956 44.6519 347.634 43.1651 346.933 41.8519C346.232 40.5386 345.203 39.5034 343.847 38.7463C342.492 37.9705 340.91 37.551 339.1 37.4878L332.888 37.2709L332.294 54.2845L338.506 54.5015ZM354.003 41.7065L355.402 41.7554L354.892 56.3625L353.493 56.3136L354.003 41.7065ZM354.827 38.1771C354.51 38.166 354.243 38.054 354.026 37.841C353.81 37.6093 353.707 37.3349 353.719 37.0177C353.73 36.7006 353.851 36.434 354.083 36.2179C354.314 36.0019 354.589 35.8994 354.906 35.9105C355.223 35.9216 355.49 36.0429 355.706 36.2746C355.922 36.4876 356.025 36.7527 356.014 37.0699C356.003 37.387 355.882 37.6536 355.65 37.8697C355.418 38.0857 355.144 38.1882 354.827 38.1771ZM364.479 56.8093C363.304 56.7683 362.191 56.552 361.14 56.1604C360.089 55.7688 359.274 55.2921 358.696 54.7302L359.379 53.6334C359.958 54.1579 360.708 54.6044 361.63 54.9728C362.569 55.3418 363.552 55.5442 364.578 55.58C366.052 55.6315 367.142 55.4268 367.85 54.9658C368.575 54.5055 368.953 53.8463 368.983 52.9882C369.005 52.3726 368.826 51.8807 368.446 51.5126C368.086 51.1451 367.628 50.8676 367.075 50.6802C366.521 50.4927 365.753 50.2885 364.771 50.0674C363.621 49.8218 362.696 49.5654 361.996 49.2981C361.295 49.0308 360.703 48.6179 360.218 48.0593C359.733 47.5007 359.507 46.7457 359.541 45.7943C359.581 44.6376 360.09 43.7028 361.067 42.9898C362.064 42.2588 363.449 41.9243 365.221 41.9862C366.154 42.0188 367.073 42.1816 367.978 42.4747C368.883 42.7678 369.617 43.139 370.18 43.5882L369.497 44.6851C368.915 44.2352 368.246 43.8849 367.489 43.6343C366.732 43.3838 365.952 43.2445 365.15 43.2165C363.788 43.1689 362.753 43.3849 362.045 43.8645C361.338 44.3441 360.969 44.9943 360.941 45.8151C360.918 46.4681 361.096 46.9879 361.475 47.3747C361.854 47.7428 362.32 48.03 362.873 48.2361C363.446 48.4242 364.241 48.6387 365.26 48.8798C366.391 49.1247 367.297 49.3805 367.979 49.6471C368.68 49.8957 369.264 50.2897 369.731 50.829C370.198 51.3683 370.415 52.095 370.383 53.0091C370.341 54.2217 369.803 55.1741 368.771 55.8665C367.738 56.5589 366.307 56.8732 364.479 56.8093ZM379.941 57.3493C378.523 57.2997 377.266 56.9383 376.168 56.2649C375.071 55.5916 374.225 54.6842 373.63 53.5427C373.035 52.3826 372.763 51.0936 372.812 49.6758C372.862 48.2393 373.224 46.9725 373.898 45.8754C374.572 44.7595 375.479 43.9134 376.62 43.3368C377.761 42.7416 379.041 42.4688 380.459 42.5183C381.634 42.5593 382.689 42.8297 383.624 43.3293C384.579 43.8109 385.339 44.5005 385.906 45.3981L384.844 46.1175C384.347 45.3717 383.713 44.8079 382.942 44.4261C382.19 44.0263 381.348 43.8101 380.415 43.7775C379.277 43.7378 378.242 43.9631 377.309 44.4536C376.396 44.926 375.662 45.6195 375.107 46.534C374.571 47.4492 374.282 48.513 374.239 49.7256C374.197 50.9382 374.411 52.0197 374.883 52.9701C375.372 53.9211 376.056 54.6734 376.933 55.227C377.83 55.7626 378.847 56.0503 379.985 56.09C380.918 56.1226 381.773 55.975 382.55 55.6473C383.346 55.3015 384.019 54.774 384.566 54.0647L385.575 54.8564C384.948 55.7123 384.141 56.3566 383.154 56.7891C382.187 57.2036 381.116 57.3903 379.941 57.3493ZM395.133 57.8798C393.752 57.8316 392.513 57.4708 391.416 56.7974C390.338 56.1247 389.501 55.2176 388.906 54.0761C388.311 52.916 388.039 51.627 388.088 50.2092C388.138 48.7914 388.499 47.534 389.172 46.4368C389.846 45.321 390.745 44.4651 391.868 43.8693C393.009 43.2741 394.27 43.0006 395.651 43.0488C397.031 43.097 398.261 43.4575 399.339 44.1302C400.436 44.8036 401.282 45.7203 401.877 46.8804C402.472 48.0219 402.745 49.3015 402.695 50.7193C402.646 52.1371 402.284 53.404 401.61 54.5198C400.937 55.6169 400.029 56.4631 398.888 57.0583C397.765 57.6542 396.513 57.928 395.133 57.8798ZM395.177 56.6205C396.296 56.6596 397.303 56.4333 398.198 55.9416C399.112 55.4505 399.837 54.7474 400.373 53.8322C400.928 52.9177 401.226 51.8634 401.268 50.6695C401.31 49.4756 401.086 48.4031 400.596 47.4521C400.125 46.5017 399.451 45.7497 398.573 45.1961C397.715 44.6432 396.726 44.3471 395.607 44.308C394.487 44.269 393.471 44.4949 392.557 44.986C391.662 45.4778 390.937 46.1809 390.382 47.0954C389.846 48.0106 389.557 49.0651 389.515 50.2591C389.474 51.453 389.688 52.5252 390.159 53.4755C390.649 54.4265 391.323 55.1785 392.182 55.7315C393.059 56.2851 394.057 56.5815 395.177 56.6205ZM418.606 43.9625L411.492 58.339L410.065 58.2891L403.999 43.4524L405.482 43.5042L410.846 56.7755L417.179 43.9127L418.606 43.9625ZM433.329 52.1253L420.764 51.6865C420.762 52.8258 421.016 53.8526 421.525 54.767C422.036 55.6627 422.74 56.369 423.637 56.8859C424.553 57.4035 425.589 57.6826 426.745 57.7229C427.697 57.7562 428.579 57.6189 429.393 57.3111C430.227 56.9853 430.925 56.4961 431.49 55.8434L432.269 56.7952C431.608 57.5379 430.785 58.0975 429.801 58.474C428.835 58.8512 427.793 59.0203 426.673 58.9812C425.218 58.9304 423.933 58.568 422.817 57.8939C421.701 57.2199 420.836 56.3119 420.223 55.1697C419.627 54.0283 419.355 52.7393 419.405 51.3029C419.454 49.8851 419.797 48.6269 420.433 47.5284C421.089 46.412 421.959 45.5552 423.045 44.958C424.13 44.3609 425.335 44.0854 426.66 44.1317C427.984 44.1779 429.158 44.5364 430.18 45.2072C431.222 45.8599 432.022 46.7564 432.58 47.8966C433.156 49.0374 433.42 50.3167 433.37 51.7345L433.329 52.1253ZM426.617 45.3629C425.591 45.3271 424.659 45.528 423.822 45.9658C422.985 46.3848 422.301 47.0053 421.768 47.8272C421.254 48.6311 420.942 49.5541 420.831 50.5962L432.024 50.987C432.004 49.9404 431.757 48.9979 431.282 48.1594C430.807 47.321 430.167 46.6543 429.363 46.1592C428.558 45.6642 427.643 45.3987 426.617 45.3629ZM439.184 47.875C439.669 46.8273 440.396 46.0402 441.367 45.5138C442.339 44.9687 443.506 44.7199 444.868 44.7675L444.82 46.1387L444.485 46.099C442.862 46.0423 441.575 46.511 440.625 47.5051C439.676 48.4806 439.17 49.8731 439.107 51.6827L438.841 59.294L437.442 59.2452L437.952 44.6381L439.295 44.685L439.184 47.875ZM336.837 75.0157C338.666 75.0796 340.093 75.6617 341.119 76.7622C342.145 77.8627 342.623 79.411 342.554 81.4071L342.256 89.9419L340.857 89.8931L341.151 81.4702C341.208 79.8285 340.832 78.564 340.022 77.6765C339.232 76.7897 338.09 76.3202 336.597 76.2681C334.881 76.2082 333.511 76.674 332.486 77.6655C331.462 78.657 330.919 80.0202 330.858 81.7552L330.587 89.5344L329.188 89.4856L329.698 74.8785L331.041 74.9254L330.931 78.0875C331.47 77.079 332.244 76.3029 333.253 75.7591C334.281 75.216 335.475 74.9682 336.837 75.0157ZM360.627 83.6072L348.063 83.1685C348.06 84.3077 348.314 85.3345 348.824 86.2489C349.334 87.1446 350.038 87.8509 350.935 88.3679C351.851 88.8855 352.887 89.1645 354.044 89.2049C354.995 89.2381 355.878 89.1008 356.692 88.793C357.525 88.4672 358.224 87.978 358.788 87.3253L359.568 88.2771C358.907 89.0198 358.084 89.5794 357.099 89.956C356.134 90.3332 355.091 90.5022 353.972 90.4631C352.517 90.4123 351.231 90.0499 350.115 89.3759C349 88.7019 348.135 87.7938 347.521 86.6517C346.926 85.5102 346.653 84.2212 346.703 82.7848C346.753 81.367 347.096 80.1088 347.732 79.0104C348.387 77.8939 349.258 77.0371 350.343 76.4399C351.429 75.8428 352.634 75.5673 353.958 75.6136C355.283 75.6599 356.456 76.0184 357.479 76.6891C358.521 77.3419 359.32 78.2383 359.878 79.3785C360.455 80.5193 360.718 81.7986 360.669 83.2164L360.627 83.6072ZM353.915 76.8448C352.889 76.809 351.957 77.01 351.12 77.4477C350.284 77.8667 349.599 78.4872 349.066 79.3091C348.552 80.113 348.24 81.036 348.129 82.0781L359.322 82.469C359.303 81.4223 359.055 80.4798 358.58 79.6414C358.105 78.8029 357.466 78.1362 356.661 77.6412C355.856 77.1461 354.941 76.8807 353.915 76.8448ZM385.852 76.8394L379.802 91.2531L378.486 91.2071L374.004 78.3589L368.608 90.8622L367.321 90.8172L362.291 76.0166L363.634 76.0636L368.048 89.2736L373.484 76.4075L374.687 76.4495L379.186 89.6346L384.565 76.7945L385.852 76.8394ZM400.864 72.2926C399.036 72.2287 398.088 73.1762 398.019 75.135L397.945 77.2617L402.618 77.4249L402.576 78.6282L397.931 78.466L397.463 91.8698L396.064 91.8209L396.532 78.4171L393.845 78.3233L393.887 77.12L396.574 77.2138L396.652 74.9752C396.695 73.744 397.084 72.7769 397.818 72.0741C398.552 71.3713 399.563 71.0424 400.85 71.0873C401.41 71.1069 401.939 71.2094 402.436 71.3949C402.954 71.5624 403.374 71.8106 403.699 72.1394L403.102 73.1832C402.524 72.6214 401.778 72.3245 400.864 72.2926ZM410.424 92.4345C409.044 92.3863 407.805 92.0255 406.708 91.3521C405.629 90.6794 404.793 89.7723 404.197 88.6309C403.603 87.4707 403.33 86.1818 403.38 84.764C403.429 83.3462 403.791 82.0887 404.464 80.9915C405.138 79.8757 406.037 79.0199 407.159 78.424C408.301 77.8288 409.562 77.5553 410.942 77.6035C412.323 77.6517 413.552 78.0122 414.631 78.6849C415.728 79.3583 416.574 80.275 417.168 81.4352C417.764 82.5766 418.036 83.8563 417.987 85.2741C417.937 86.6919 417.576 87.9587 416.902 89.0745C416.228 90.1717 415.321 91.0178 414.179 91.613C413.057 92.2089 411.805 92.4827 410.424 92.4345ZM410.468 91.1753C411.588 91.2143 412.595 90.988 413.49 90.4963C414.404 90.0052 415.129 89.3021 415.665 88.3869C416.22 87.4724 416.518 86.4182 416.56 85.2242C416.601 84.0303 416.377 82.9578 415.888 82.0068C415.417 81.0564 414.742 80.3045 413.865 79.7508C413.007 79.1979 412.018 78.9019 410.898 78.8628C409.779 78.8237 408.762 79.0497 407.849 79.5407C406.954 80.0325 406.229 80.7356 405.674 81.6501C405.138 82.5653 404.849 83.6199 404.807 84.8138C404.765 86.0077 404.98 87.0799 405.451 88.0302C405.941 88.9812 406.615 89.7332 407.474 90.2862C408.351 90.8398 409.349 91.1362 410.468 91.1753ZM427.777 93.0405C426.397 92.9923 425.158 92.6315 424.061 91.9581C422.982 91.2854 422.145 90.3783 421.55 89.2368C420.955 88.0767 420.683 86.7877 420.732 85.3699C420.782 83.9521 421.143 82.6946 421.817 81.5975C422.491 80.4817 423.389 79.6258 424.512 79.03C425.654 78.4348 426.914 78.1613 428.295 78.2095C429.675 78.2577 430.905 78.6182 431.983 79.2909C433.081 79.9643 433.927 80.881 434.521 82.0411C435.116 83.1826 435.389 84.4622 435.34 85.88C435.29 87.2978 434.928 88.5646 434.254 89.6805C433.581 90.7776 432.673 91.6238 431.532 92.219C430.409 92.8149 429.158 93.0887 427.777 93.0405ZM427.821 91.7812C428.94 91.8203 429.948 91.594 430.843 91.1023C431.756 90.6112 432.481 89.9081 433.018 88.9929C433.572 88.0784 433.871 87.0241 433.912 85.8302C433.954 84.6363 433.73 83.5638 433.24 82.6128C432.769 81.6624 432.095 80.9104 431.218 80.3568C430.359 79.8038 429.37 79.5078 428.251 79.4687C427.132 79.4296 426.115 79.6556 425.201 80.1467C424.306 80.6384 423.581 81.3416 423.027 82.2561C422.49 83.1713 422.201 84.2258 422.16 85.4198C422.118 86.6137 422.333 87.6859 422.804 88.6362C423.294 89.5872 423.968 90.3392 424.826 90.8922C425.703 91.4458 426.702 91.7421 427.821 91.7812ZM453.134 73.0252L452.409 93.7886L451.038 93.7407L451.158 90.2988C450.54 91.4166 449.698 92.265 448.632 92.8442C447.566 93.4233 446.37 93.6898 445.046 93.6435C443.684 93.5959 442.464 93.2358 441.385 92.5631C440.307 91.8904 439.47 90.9833 438.875 89.8418C438.298 88.701 438.035 87.4124 438.085 85.9759C438.135 84.5394 438.488 83.2723 439.142 82.1745C439.817 81.0587 440.715 80.2122 441.837 79.635C442.96 79.0391 444.202 78.765 445.564 78.8125C446.87 78.8581 448.025 79.2067 449.029 79.8581C450.053 80.5102 450.843 81.397 451.402 82.5185L451.735 72.9764L453.134 73.0252ZM445.174 92.3872C446.293 92.4263 447.3 92.2 448.195 91.7082C449.109 91.2172 449.834 90.514 450.37 89.5989C450.925 88.6843 451.223 87.6301 451.265 86.4362C451.307 85.2422 451.083 84.1697 450.593 83.2187C450.122 82.2684 449.448 81.5164 448.571 80.9628C447.712 80.4098 446.723 80.1138 445.604 80.0747C444.484 80.0356 443.468 80.2616 442.554 80.7527C441.659 81.2444 440.934 81.9475 440.379 82.8621C439.843 83.7772 439.554 84.8318 439.512 86.0257C439.471 87.2197 439.685 88.2918 440.156 89.2422C440.646 90.1932 441.32 90.9452 442.179 91.4981C443.056 92.0518 444.054 92.3481 445.174 92.3872Z" fill="#395F2E"/>
</svg>
