<svg width="268" height="60" viewBox="0 0 268 60" fill="none" xmlns="http://www.w3.org/2000/svg">
<path d="M70.463 28.3593C70.4501 29.0141 70.3553 29.6947 70.2692 30.3192C70.183 30.9438 70.0753 31.4909 69.9547 32.081C69.8815 32.4429 69.804 32.7875 69.7135 33.1407C69.524 33.8902 69.3431 34.6311 69.0932 35.3634C68.4514 37.2371 67.7751 39.0592 66.8404 40.8167C65.505 43.3237 63.7605 45.3396 61.499 47.0626C60.5083 47.8164 59.509 48.5444 58.4192 49.1475C56.2395 50.3536 53.9393 51.1031 51.5056 51.6028C48.7875 52.1627 46.0695 52.4901 43.3213 52.7658C42.4296 52.8563 41.5422 52.9166 40.6506 52.9682C39.3583 53.0458 38.0747 53.0587 36.7824 53.0458C35.6969 53.0329 34.6114 53.0027 33.5216 52.951C31.6737 52.8649 29.8301 52.7012 27.9908 52.5203C27.6117 52.4815 27.2369 52.4384 26.8622 52.3867C26.1299 52.2833 25.4019 52.1843 24.6783 52.0335C22.322 51.5511 20.0606 50.9049 17.8207 50.0262C15.7746 49.225 13.7371 48.4109 11.7987 47.3685C11.6049 47.2651 11.4111 47.1574 11.2258 47.0325C9.56744 45.9125 8.08996 44.7581 6.87954 43.1212C5.66913 41.4844 4.86792 39.6451 4.35102 37.6593C3.7695 35.428 3.75227 33.1967 3.92457 30.9137C3.93319 30.8275 3.95042 30.7155 3.9418 30.6638C3.93319 30.6122 3.9375 30.5734 3.89873 30.5691C3.74366 30.5648 3.70489 30.6854 3.56274 30.7715C3.42059 30.8577 3.22675 31.0128 3.05015 31.0817C2.36525 31.3487 1.81819 31.142 1.58128 30.4355C1.34006 29.7291 1.37021 29.027 1.45636 28.3033C1.66312 26.6062 2.23171 25.077 2.91661 23.522C2.92523 23.5047 2.93384 23.4875 2.94246 23.466C3.04153 23.2549 3.14491 23.0395 3.23968 22.8284C3.24398 22.8198 3.26983 22.7983 3.24829 22.8026C3.22675 22.8069 3.15783 22.8414 3.10184 22.8457C3.09322 22.8457 3.17506 22.8328 3.06738 22.85C2.95969 22.8672 2.63662 23.0007 2.43417 23.0438C2.23171 23.0826 1.95603 23.0438 1.7062 22.9792C1.69758 22.9792 1.86127 23.0309 1.64158 22.962C1.42621 22.8931 0.956685 22.3589 1.00407 21.9153C1.05145 21.4716 1.12037 21.0408 1.31421 20.6316C1.80958 19.5849 2.36956 18.6329 3.07599 17.7197C3.22675 17.5216 3.38183 17.3407 3.5412 17.1511C3.56705 17.121 3.59289 17.0908 3.61874 17.0607C4.00211 16.6256 4.3984 16.1992 4.78608 15.7684C4.68701 15.6564 4.52763 15.6779 4.40702 15.6349C3.79104 15.4066 3.45936 15.0534 3.41198 14.3857C3.37752 13.886 3.4809 13.4811 3.61443 12.9599C3.74797 12.443 3.98057 11.8141 4.19164 11.28C4.26056 11.099 4.34671 10.9009 4.43286 10.7157C4.66116 10.216 4.88946 9.7077 5.14361 9.21234C6.51771 6.58474 8.0598 4.15099 9.90774 1.82492C10.3428 1.28217 10.7735 0.76096 11.368 0.334515C11.9624 -0.0876235 12.587 -0.117776 13.2288 0.287132C13.651 0.554199 14.0042 0.916031 14.323 1.30371C15.1672 2.32029 15.8349 3.41009 16.4121 4.59466C16.4509 4.6722 16.4423 4.70666 16.537 4.7842C16.6275 4.86173 16.7266 4.88327 16.9032 4.8445C17.9542 4.62912 19.0526 4.43529 20.1338 4.28452C20.7283 4.20268 21.3313 4.13376 21.9301 4.07776C23.2611 3.95284 24.6007 3.88823 25.9361 3.86238C26.3927 3.85377 26.8493 3.85377 27.3059 3.85808C28.2707 3.871 29.2399 3.90977 30.2005 3.96576C30.347 3.97438 30.502 3.99161 30.6399 4.00022C30.9414 4.02176 31.3032 4.06484 31.5789 4.09068C31.8546 4.11653 31.9709 4.03899 32.0786 3.81069C32.3327 3.27225 32.5524 2.72089 32.8669 2.2126C33.1813 1.70431 33.5044 1.1831 33.9954 0.829881C34.7493 0.287132 35.3911 0.252671 36.1708 0.769575C36.748 1.14864 37.1959 1.69569 37.6009 2.25137C38.1264 2.97072 38.5614 3.75469 38.9922 4.52574C39.3454 5.15034 39.6814 5.80508 40.0863 6.38229C40.4912 6.9595 40.9435 7.46779 41.4906 7.88131C42.0376 8.29914 42.5933 8.48867 43.2653 8.56621C43.9372 8.64374 44.6264 8.64805 45.307 8.63944C45.7938 8.63082 46.2848 8.60498 46.7759 8.60928C47.9432 8.60928 49.102 8.65667 50.265 8.75574C50.377 8.76436 50.4933 8.78159 50.6053 8.79451C51.1653 8.85912 51.7296 8.92804 52.2852 9.02281C53.7886 9.27695 55.2488 9.60863 56.7005 10.0738C57.5275 10.3409 58.3072 10.6424 59.0997 10.9957C60.4049 11.5815 61.6455 12.2836 62.8387 13.0848C63.0067 13.1968 63.1833 13.3088 63.347 13.438C65.2294 14.9241 66.849 16.5567 68.1326 18.5985C69.2569 20.3818 69.8384 22.2986 70.2003 24.3576C70.4372 25.6757 70.4889 27.0154 70.463 28.3593Z" fill="#FFFAFB"/>
<path d="M35.5117 5.58968C35.137 5.58968 34.62 5.61983 34.2281 5.50784C33.6724 5.34846 33.4053 5.05985 33.6121 4.45249C33.8188 3.84513 34.0945 3.18608 34.4951 2.64333C35.0077 1.94982 35.6151 1.92397 36.2397 2.52703C36.4809 2.75963 36.6446 3.04393 36.791 3.367C36.9375 3.69006 37.1141 4.06912 37.2304 4.42234C37.4415 5.07278 37.2218 5.45615 36.524 5.56384C36.2009 5.61983 35.8865 5.58968 35.5117 5.58968Z" fill="#FFBDAE"/>
<path d="M11.2861 5.46911C11.075 5.4605 10.8424 5.47773 10.6314 5.44327C10.2523 5.37435 10.0455 5.13743 10.1403 4.75406C10.2911 4.15531 10.4978 3.58672 10.7649 3.03105C10.8381 2.88459 10.9286 2.73383 11.0449 2.61753C11.4455 2.22985 11.8676 2.16523 12.3371 2.47107C12.5654 2.62183 12.7119 2.84582 12.854 3.06551C13.078 3.41011 13.2848 3.76764 13.4097 4.15531C13.5906 4.71529 13.4054 5.04697 12.8713 5.27958C12.6344 5.38296 12.3544 5.43465 12.0916 5.45619C11.8288 5.47773 11.5532 5.44327 11.2861 5.43896C11.2818 5.44757 11.2947 5.46911 11.2861 5.46911Z" fill="#FFBDAE"/>
<path d="M69.9203 32.1586C69.7954 34.5622 68.8176 39.0765 68.0767 41.0019C66.9137 44.0258 66.0392 45.6928 64.3722 47.8509C62.0332 50.8748 59.4229 52.6194 55.9381 53.8944C54.0901 54.575 52.1948 54.5793 50.2694 54.7602C49.8774 54.7947 49.4897 54.7387 49.0977 54.7645C47.9218 54.842 46.763 54.855 45.5957 54.6827C45.0357 54.6008 44.5102 54.4371 44.0191 54.1442C43.7865 54.0021 43.5712 53.8255 43.4161 53.6015C43.0198 53.0329 43.0069 52.4298 43.4376 51.8914C43.8727 51.3529 44.4499 51.0428 45.0745 50.8274C45.936 50.5302 46.8966 50.4268 47.7581 50.3234C48.6196 50.2201 49.382 50.1856 50.2004 50.1081C50.5537 50.0736 50.5321 50.0176 50.5321 49.7032C49.2657 44.6289 49.6577 40.218 51.8847 35.4883" fill="white"/>
<path d="M69.9203 32.1586C69.7954 34.5622 68.8176 39.0765 68.0767 41.0019C66.9137 44.0258 66.0392 45.6928 64.3722 47.8509C62.0332 50.8748 59.4229 52.6194 55.9381 53.8944C54.0901 54.575 52.1948 54.5793 50.2694 54.7602C49.8774 54.7947 49.4897 54.7387 49.0977 54.7645C47.9218 54.842 46.763 54.855 45.5957 54.6827C45.0357 54.6008 44.5102 54.4371 44.0191 54.1442C43.7865 54.0021 43.5712 53.8255 43.4161 53.6015C43.0198 53.0329 43.0069 52.4298 43.4376 51.8914C43.8727 51.3529 44.4499 51.0428 45.0745 50.8274C45.936 50.5302 46.8966 50.4268 47.7581 50.3234C48.6196 50.2201 49.382 50.1856 50.2004 50.1081C50.5537 50.0736 50.5321 50.0176 50.5321 49.7032C49.2657 44.6289 49.6577 40.218 51.8847 35.4883" stroke="#8C8C8C" stroke-width="2" stroke-miterlimit="10"/>
<path d="M78.3415 40.5841C78.4879 41.3465 78.6645 42.1133 78.7162 42.8886C78.811 44.3058 78.6818 45.6024 78.1304 46.9162C77.8892 47.4891 77.5532 47.9931 77.088 48.4023C76.36 49.0398 75.7053 49.0139 74.8998 48.5315C74.861 48.51 74.8007 48.4497 74.7662 48.4798C74.6155 48.6047 74.5595 48.8244 74.4604 49.001C73.8961 49.9788 73.349 50.9437 72.5091 51.7105C71.8371 52.3264 71.1436 52.8778 70.2304 53.0846C69.0587 53.3516 68.2015 52.6926 68.068 51.5037C68.0077 50.9696 68.1498 50.4656 68.3351 49.9616C68.7529 48.8115 69.3043 47.7992 69.8901 46.6965C70.4759 45.5938 71.1436 44.4437 71.6476 43.2634C72.3368 41.6438 72.7158 39.9638 72.8795 38.2063C73.0001 36.9055 72.7804 35.6994 72.3368 34.476C72.1343 33.9074 71.794 33.4293 71.4193 32.9598C71.2943 32.8004 71.0962 32.6755 70.9239 32.6712C70.7516 32.6626 70.6913 32.6152 70.5879 32.5419C70.2218 32.2792 69.8815 32.0207 69.5196 31.758C69.4507 31.7063 69.3904 31.6503 69.3301 31.59C69.132 31.3832 68.951 31.1937 69.0415 30.8835C69.132 30.5734 69.4076 30.4183 69.7264 30.3839C70.5965 30.2891 71.4494 30.3063 72.298 30.5476C74.1244 31.0688 75.5631 31.9777 76.8295 33.3819C77.8203 34.4803 78.6172 35.6778 79.3753 36.9356C79.6768 37.4396 79.8319 37.9867 79.9525 38.5553C80.0042 38.8051 80.0171 39.0592 79.974 39.3177C79.8146 40.2869 79.302 40.6229 78.3415 40.5841Z" fill="#FFFAFB"/>
<path d="M17.588 47.7217C18.148 48.118 18.6649 48.5444 19.2163 48.9579C20.1725 49.6816 21.159 50.1382 22.3565 50.2761C22.7786 50.3234 23.2223 50.3881 23.5841 50.5604C23.9503 50.7327 24.2044 50.9093 24.4069 51.228C24.7428 51.7578 24.6868 52.2877 24.4198 52.796C24.2216 53.175 23.709 53.5584 23.4506 53.7393C22.4642 54.4414 20.3922 55.2125 19.492 55.1436C16.3475 54.8937 14.5081 54.687 12.2122 52.5117C10.3686 50.7628 9.71386 47.5537 9.83878 45.0209" fill="white"/>
<path d="M17.588 47.7217C18.148 48.118 18.6649 48.5444 19.2163 48.9579C20.1725 49.6816 21.159 50.1382 22.3565 50.2761C22.7786 50.3234 23.2223 50.3881 23.5841 50.5604C23.9503 50.7327 24.2044 50.9093 24.4069 51.228C24.7428 51.7578 24.6868 52.2877 24.4198 52.796C24.2216 53.175 23.709 53.5584 23.4506 53.7393C22.4642 54.4414 20.3922 55.2125 19.492 55.1436C16.3475 54.8937 14.5081 54.687 12.2122 52.5117C10.3686 50.7628 9.71386 47.5537 9.83878 45.0209" stroke="#8C8C8C" stroke-width="2" stroke-miterlimit="10"/>
<path d="M35.9598 52.5159C36.0588 52.5375 36.1622 52.5461 36.257 52.5849C36.7739 52.7873 36.9117 53.175 36.58 53.6359C36.4422 53.8254 36.2613 53.9848 36.0675 54.1269C33.1383 56.2247 30.192 57.6117 26.6253 58.2493C26.354 58.2966 26.1127 58.301 25.8026 58.3053C25.4925 58.3053 25.0919 58.2966 24.7473 58.1933C23.6359 57.8616 23.1492 57.0991 23.4378 55.949C23.5541 55.4881 23.7738 55.1134 24.1097 54.7645C25.3503 53.4722 26.7158 52.3436 28.2837 51.452" fill="white"/>
<path d="M35.9598 52.5159C36.0588 52.5375 36.1622 52.5461 36.257 52.5849C36.7739 52.7873 36.9117 53.175 36.58 53.6359C36.4422 53.8254 36.2613 53.9848 36.0675 54.1269C33.1383 56.2247 30.192 57.6117 26.6253 58.2493C26.354 58.2966 26.1127 58.3009 25.8026 58.3053C25.4925 58.3053 25.0919 58.2966 24.7473 58.1933C23.6359 57.8616 23.1492 57.0991 23.4378 55.949C23.5541 55.4881 23.7738 55.1134 24.1097 54.7645C25.3503 53.4722 26.7158 52.3436 28.2837 51.452" stroke="#8C8C8C" stroke-width="2" stroke-miterlimit="10"/>
<path d="M44.1354 17.6293C44.4585 18.3098 44.816 18.8526 45.0486 19.6021C45.2812 20.3473 45.5224 21.1356 45.3587 21.9712C45.1563 23.0395 44.3982 23.5909 43.3127 23.4789C43.2308 23.4703 43.1318 23.4229 43.0801 23.4573C42.9595 23.5392 43.037 23.6813 43.0671 23.789C43.2265 24.4179 43.3859 25.0296 43.4634 25.6714C43.5625 26.5243 43.5151 27.347 43.2954 28.1784C43.1921 28.5575 43.037 28.915 42.7699 29.2122C42.1841 29.8626 41.4432 29.8971 40.7798 29.3544C40.4094 29.0485 40.1552 28.5833 40.0476 28.1827C39.9356 27.7821 40.0476 27.5366 40.3792 27.3686C40.7109 27.2006 41.0512 27.416 41.2106 27.7089C41.37 28.0018 41.4518 28.2387 41.7146 28.4412C41.917 28.2344 42.029 27.9716 42.0807 27.696C42.2961 26.6061 42.1841 25.6025 41.9213 24.5471C41.749 23.8493 41.5078 23.1946 41.2752 22.5269C41.2537 22.4623 41.2192 22.3848 41.2106 22.3374C41.1201 21.9669 41.034 21.6266 41.3958 21.3854C41.7576 21.1442 42.1066 21.2734 42.4555 21.5319C42.6924 21.7085 42.9638 22.01 43.2653 22.122C43.7822 22.3158 44.0536 22.178 44.1096 21.6094C44.1483 21.1959 44.0665 20.7738 43.9373 20.3688C43.597 19.3006 43.0413 18.3486 42.4598 17.3923C42.3004 17.1339 42.1066 16.8884 41.9687 16.6299C41.8309 16.3715 41.762 16.1948 41.917 15.9019C42.0721 15.609 42.4598 15.497 42.7785 15.6693C42.9508 15.7598 43.1188 15.9192 43.2653 16.0225C43.4117 16.1259 43.5582 16.2164 43.7176 16.2508C44.1569 16.3413 44.3982 16.2078 44.4197 15.7426C44.4542 15.0447 44.3163 14.3771 44.0234 13.7352C43.485 12.5507 42.8733 11.4178 42.1367 10.3495C42.0592 10.2375 41.9687 10.1298 41.9256 10.0092C41.8266 9.71201 41.8783 9.43633 42.1367 9.2511C42.3995 9.06588 42.6752 9.11326 42.925 9.29849C43.0025 9.35879 43.0671 9.44063 43.1231 9.52248C44.0191 10.8147 44.76 12.1156 45.3501 13.5931C45.6258 14.2866 45.7421 14.9112 45.7249 15.7382C45.7077 16.5696 45.2209 17.3406 44.3163 17.556C44.2776 17.5689 44.1785 17.6163 44.1354 17.6293Z" fill="#8C8C8C"/>
<path d="M56.7005 10.0566C56.498 10.3279 56.33 10.5089 56.0845 10.7716C55.8433 11.0387 55.5504 11.3359 55.2704 11.6073C53.8532 12.9943 52.6126 14.5149 51.4797 16.1474C51.1998 16.5523 50.8982 16.9486 50.5235 17.2717C50.265 17.5 49.9592 17.6378 49.6232 17.6292C48.6583 17.6034 48.1199 16.8366 48.1328 15.9622C48.1414 15.4194 48.262 15.0231 48.4386 14.5665C49.0546 13.0115 49.9032 11.6762 50.9499 10.3925C51.3591 9.88857 51.8157 9.45351 52.2766 9.00552C53.7843 9.25967 55.2445 9.59996 56.7005 10.0566Z" fill="#8C8C8C"/>
<path d="M62.8344 13.0719C62.8258 13.0848 62.8172 13.0934 62.8042 13.1063C62.3562 13.5457 61.891 13.9635 61.4172 14.3771C60.4782 15.1955 59.5865 16.057 58.7207 16.9486C58.1004 17.5862 57.4457 18.1634 56.7435 18.719C56.2912 19.0766 55.8217 19.2963 55.2617 19.0163C54.6975 18.7363 54.3227 18.1591 54.3227 17.556C54.3184 16.953 54.5208 16.4533 54.8181 15.9838C56.0199 14.0798 57.4327 12.4774 59.0998 10.9784C60.4049 11.5815 61.6412 12.2707 62.8344 13.0719Z" fill="#8C8C8C"/>
<path d="M50.5665 8.81603C50.5665 8.82464 50.9111 8.50158 50.4459 8.92372C49.985 9.34585 48.3093 11.3187 47.7321 12.2448C47.6115 12.4344 47.3057 12.7359 47.0731 12.8996C46.7241 13.1451 46.2417 13.2399 45.854 13.046C45.4663 12.8522 45.2854 12.443 45.2639 12.1328C45.2424 11.8184 45.2854 11.7538 45.3113 11.5212C45.3371 11.2886 45.3845 11.1292 45.4534 10.9181C45.5223 10.707 45.6214 10.5003 45.7334 10.3064C46.0651 9.72492 46.414 9.15632 46.7715 8.59634C47.9346 8.60065 49.1062 8.63942 50.2563 8.74711C50.3683 8.75572 50.5708 8.63511 50.5665 8.81603Z" fill="#8C8C8C"/>
<path d="M25.9274 3.85378C25.9188 4.54729 25.8628 5.23219 25.7809 5.92139C25.6991 6.6149 25.6043 7.32134 25.4966 8.01054C25.4363 8.38961 25.3631 8.7859 25.1908 9.11758C24.8634 9.74648 24.3121 10.0092 23.6358 9.96185C22.9595 9.91447 22.6364 9.62156 22.3306 9.0142C22.0248 8.40684 21.9214 7.63148 21.9042 6.93797C21.8912 6.42106 21.9171 5.81801 21.9128 5.33987C21.9085 4.86174 21.9042 4.52144 21.9171 4.06915C23.2524 3.99592 24.5878 3.91839 25.9274 3.85378Z" fill="#8C8C8C"/>
<path d="M30.6356 3.99161C30.5926 5.04696 30.5624 6.09369 30.4289 7.14042C30.3901 7.43764 30.36 7.72194 30.2221 8.01054C29.8732 8.75574 29.1323 9.13481 28.3268 8.97974C27.8314 8.88497 27.5859 8.54898 27.4351 8.11392C27.2887 7.67455 27.2284 7.11027 27.2068 6.69244C27.1896 6.39522 27.2025 6.01185 27.2025 5.82232C27.1982 5.08573 27.2284 4.53006 27.293 3.84085C28.2579 3.86239 29.2228 3.88823 30.192 3.95285C30.3384 3.96577 30.4892 3.97438 30.6356 3.99161Z" fill="#8C8C8C"/>
<path d="M20.1209 4.27591C20.1209 4.30606 20.1209 4.36206 20.1209 4.38791C20.0692 5.34418 20.0175 6.30476 19.7461 7.22657C19.5781 7.80378 19.3498 8.3293 18.8114 8.65236C17.8551 9.22957 16.8472 8.85482 16.5543 7.77363C16.438 7.34287 16.4681 6.92073 16.4638 6.48998C16.4595 5.91708 16.5112 5.34418 16.5155 4.77128C16.649 4.86604 16.7136 4.87466 16.8902 4.83589C17.9499 4.62051 19.044 4.42667 20.1209 4.27591Z" fill="#8C8C8C"/>
<path d="M0.655218 16.8237C1.52965 16.9142 2.43423 17.0176 3.33019 17.1167C4.56215 17.2545 5.82426 17.3966 7.06482 17.5431C7.19836 17.5603 7.3362 17.5776 7.4482 17.6594C7.55588 17.7369 7.58604 17.8532 7.55588 17.9739C7.53004 18.0902 7.44819 18.1505 7.34481 18.1677C7.24143 18.1849 7.14236 18.1763 7.03898 18.1634C4.99721 17.9265 2.96836 17.6939 0.922285 17.4699C0.771521 17.4526 0.637987 17.444 0.461379 17.457C0.280462 17.4699 0.0349329 17.4311 0.0392405 17.1813C0.043548 16.9314 0.207234 16.8582 0.452763 16.8237C0.500146 16.8194 0.556144 16.8151 0.655218 16.8237Z" fill="black"/>
<path d="M0.650873 23.677C0.573338 23.6684 0.383806 23.69 0.254581 23.6684C0.125355 23.6469 0.0133588 23.5564 0.000436168 23.4014C-0.0081789 23.2506 0.112432 23.1472 0.22012 23.1041C0.327809 23.0611 0.392422 23.074 0.478572 23.0697C2.20589 22.9362 3.92891 22.738 5.63469 22.5183C5.93621 22.4796 6.28082 22.4623 6.52635 22.402C6.77618 22.3417 6.87095 22.4149 6.92264 22.6088C6.97433 22.8026 6.84941 22.9318 6.6728 22.9921C6.31959 23.1041 5.94052 23.1041 5.57008 23.1472C3.93752 23.3368 2.30066 23.522 0.672411 23.7115C0.629336 23.7029 0.728409 23.6857 0.650873 23.677Z" fill="black"/>
<path d="M3.21823 10.0911C3.33022 10.1126 3.38622 10.1514 3.47668 10.1988C4.98431 11.0043 6.44457 11.8615 7.97374 12.6454C8.02112 12.667 8.02112 12.667 8.11589 12.7359C8.21065 12.8048 8.3528 12.9771 8.24511 13.1494C8.13743 13.3217 7.93066 13.2873 7.81436 13.2442C7.69806 13.2011 7.68083 13.1796 7.62052 13.1494C6.1215 12.3827 4.6914 11.5427 3.20961 10.7501C3.11915 10.7027 3.04592 10.6554 2.95977 10.5735C2.87793 10.496 2.83916 10.3711 2.90378 10.2591C2.96839 10.1342 3.10623 10.0695 3.21823 10.0911Z" fill="black"/>
<path d="M37.786 21.5361C37.8248 21.5361 37.9023 21.5749 37.9756 21.6094C39.5435 22.4192 41.189 23.1127 42.8086 23.8407C43.2265 24.0259 43.6357 24.2197 44.0535 24.4179C44.1612 24.4696 44.2603 24.5083 44.368 24.5902C44.4756 24.672 44.523 24.8056 44.4627 24.9434C44.4024 25.0812 44.2516 25.1157 44.131 25.0856C44.0104 25.0554 43.9329 25.0166 43.8424 24.9779C42.0203 24.1551 40.2026 23.3367 38.3848 22.5053C38.1565 22.402 37.9325 22.277 37.7171 22.1435C37.631 22.0918 37.5448 22.0358 37.4974 21.9411C37.3725 21.7128 37.519 21.5361 37.786 21.5361Z" fill="black"/>
<path d="M44.9754 17.78C43.3213 17.6551 41.6586 17.5474 40.0002 17.4311C39.5953 17.4009 39.1817 17.3966 38.7811 17.3794C38.6304 17.3751 38.4624 17.3708 38.3375 17.3062C38.2126 17.2415 38.1522 17.1597 38.1652 17.0262C38.1781 16.8926 38.2642 16.8151 38.3935 16.7936C38.5227 16.7763 38.6648 16.7763 38.7984 16.7806C40.0863 16.8151 41.3743 16.9271 42.6579 17.0132C43.2825 17.0563 43.9114 17.0994 44.536 17.1425C44.7212 17.1554 44.9108 17.1726 45.0874 17.2286C45.264 17.2846 45.3975 17.3751 45.3587 17.5818C45.32 17.7886 45.1692 17.7972 44.9754 17.78Z" fill="black"/>
<path d="M43.5194 9.72923C43.6486 9.71631 43.7865 9.78092 43.8296 9.92307C43.8726 10.0652 43.8037 10.1901 43.6788 10.2547C43.5539 10.3237 43.4246 10.3581 43.2954 10.3969C41.5724 10.9138 39.858 11.435 38.191 12.1156C37.9885 12.1974 37.7258 12.3008 37.6224 12.0424C37.519 11.7839 37.6655 11.6892 37.9972 11.5513C39.2894 11.0172 40.7927 10.5089 42.1884 10.104C42.5071 10.0135 42.8431 9.90153 43.1662 9.81538C43.2868 9.78523 43.3902 9.74215 43.5194 9.72923Z" fill="black"/>
<path d="M11.2603 17.2244C11.355 16.2078 11.9322 15.566 12.9187 15.4324C13.6294 15.3334 14.2841 15.6047 14.8269 15.945C15.3653 16.2853 15.7573 16.6558 16.1105 17.1253C16.6404 17.8317 16.8687 18.5855 16.4164 19.3781C15.9684 20.1707 15.2318 20.4938 14.3272 20.3689C12.966 20.1793 12.0658 19.4471 11.4412 18.2409C11.2818 17.9222 11.2301 17.556 11.2603 17.2244Z" fill="#FFBDAE"/>
<path d="M30.6442 20.4033C30.067 20.3775 29.0504 19.8778 28.6326 19.1455C28.3569 18.6631 28.1674 17.9954 28.5206 17.4225C28.7704 17.0176 29.0892 16.6558 29.5285 16.4749C30.6657 16.0053 31.7771 15.9106 32.8712 16.5266C33.9653 17.1425 34.3487 18.1806 33.5345 19.2963C32.8798 20.1966 31.9364 20.4593 30.6442 20.4033Z" fill="#FFBDAE"/>
<path d="M22.4513 16.3456C22.2402 16.6256 22.0205 16.9444 21.7922 17.2028C21.3658 17.6939 20.8833 18.0557 20.2932 18.297C19.8538 18.4779 19.3456 18.4133 18.9837 18.2237C18.6262 18.0342 18.5056 17.7973 18.6391 17.4785C18.7727 17.1598 19.0699 17.1684 19.3671 17.2718C19.6643 17.3751 19.9572 17.3364 20.2286 17.1727C20.767 16.841 21.1461 16.3801 21.4692 15.8632C21.6932 15.5057 21.8741 15.0878 22.0636 14.7562C22.2531 14.4245 22.4039 14.1833 22.783 14.2436C23.1663 14.3039 23.2396 14.6312 23.2913 14.9629C23.3731 15.4971 23.4592 16.0312 23.6445 16.5438C23.7134 16.7333 23.7823 16.9272 23.9072 17.0908C24.1528 17.4096 24.4241 17.4699 24.7946 17.2976C24.9367 17.233 25.0057 17.1339 25.1909 17.0478C25.3718 16.9616 25.6561 16.9315 25.8241 17.1382C25.9921 17.345 26.0093 17.6207 25.8112 17.8188C25.1478 18.4736 24.3164 18.6114 23.5282 18.1591C23.1276 17.9308 22.9553 17.5561 22.7873 17.2201C22.6193 16.8798 22.5891 16.6601 22.4513 16.3456Z" fill="black"/>
<path d="M17.1616 13.5371C17.1314 13.9851 16.9634 14.5709 16.6188 14.95C16.1019 15.5186 15.417 15.6306 14.8269 15.0534C14.0429 14.2909 13.8922 13.1107 14.6287 12.2535C15.2663 11.5083 16.2871 11.6504 16.8557 12.4085C17.097 12.7273 17.1917 13.0891 17.1616 13.5371Z" fill="black"/>
<path d="M15.6885 12.9556C15.6842 13.2227 15.4817 13.4208 15.2146 13.4165C14.9476 13.4122 14.7494 13.2012 14.7537 12.9341C14.758 12.667 14.9605 12.4689 15.2276 12.4775C15.4903 12.4818 15.6885 12.6886 15.6885 12.9556Z" fill="#FFFAFB"/>
<path d="M15.3051 13.9894C15.3051 14.1488 15.1802 14.2694 15.0208 14.2651C14.8614 14.2608 14.7365 14.1359 14.7408 13.9722C14.7408 13.8128 14.8657 13.6922 15.0251 13.6922C15.1845 13.7008 15.3051 13.8257 15.3051 13.9894Z" fill="#FFFAFB"/>
<path d="M27.1119 13.8817C27.1722 13.1925 27.4307 12.5851 28.0208 12.1759C28.4171 11.9002 28.822 11.8658 29.2312 12.1587C29.8343 12.5894 30.1229 13.1537 30.0497 13.9075C30.0152 14.2866 29.9204 14.6657 29.7309 15.0017C29.4681 15.4669 29.0977 15.7856 28.5377 15.7641C27.9777 15.7382 27.5685 15.4281 27.3101 14.9327C27.1464 14.6097 27.0818 14.2608 27.1119 13.8817Z" fill="black"/>
<path d="M28.6713 13.1581C28.6713 13.4251 28.4646 13.619 28.2018 13.619C27.9391 13.6147 27.7323 13.4165 27.7323 13.1495C27.7323 12.8824 27.9391 12.6886 28.2018 12.6886C28.4689 12.6929 28.6713 12.8953 28.6713 13.1581Z" fill="#FFFAFB"/>
<path d="M28.2966 14.1832C28.2966 14.3426 28.1717 14.4632 28.0123 14.4632C27.8529 14.4632 27.728 14.3383 27.728 14.1789C27.728 14.0196 27.8529 13.8989 28.0123 13.8989C28.176 13.9032 28.2966 14.0239 28.2966 14.1832Z" fill="#FFFAFB"/>
<path d="M102.592 24.572C104.477 24.572 105.989 25.132 107.128 26.252C108.285 27.372 108.864 29.0613 108.864 31.32V40H103.544V32.188C103.544 30.116 102.713 29.08 101.052 29.08C100.137 29.08 99.4 29.3787 98.84 29.976C98.2987 30.5733 98.028 31.4693 98.028 32.664V40H92.708V19.224H98.028V26.224C98.6067 25.6827 99.288 25.272 100.072 24.992C100.856 24.712 101.696 24.572 102.592 24.572ZM128.164 24.824V40H123.096V38.376C122.536 38.992 121.864 39.4587 121.08 39.776C120.296 40.0933 119.465 40.252 118.588 40.252C116.628 40.252 115.06 39.6733 113.884 38.516C112.727 37.3587 112.148 35.6227 112.148 33.308V24.824H117.468V32.44C117.468 33.5787 117.683 34.4093 118.112 34.932C118.541 35.4547 119.167 35.716 119.988 35.716C120.828 35.716 121.509 35.4267 122.032 34.848C122.573 34.2507 122.844 33.3453 122.844 32.132V24.824H128.164ZM141.475 24.572C143.36 24.572 144.872 25.132 146.011 26.252C147.168 27.372 147.747 29.0613 147.747 31.32V40H142.427V32.188C142.427 30.116 141.596 29.08 139.935 29.08C139.02 29.08 138.283 29.3787 137.723 29.976C137.181 30.5733 136.911 31.4693 136.911 32.664V40H131.591V24.824H136.659V26.476C137.256 25.86 137.965 25.3933 138.787 25.076C139.608 24.74 140.504 24.572 141.475 24.572ZM167.63 24.824V37.228C167.63 40.0467 166.864 42.156 165.334 43.556C163.803 44.9747 161.6 45.684 158.726 45.684C157.232 45.684 155.832 45.516 154.526 45.18C153.219 44.844 152.108 44.3493 151.194 43.696L153.126 39.972C153.742 40.476 154.516 40.868 155.45 41.148C156.402 41.4467 157.335 41.596 158.25 41.596C159.65 41.596 160.676 41.288 161.33 40.672C161.983 40.056 162.31 39.1413 162.31 37.928V37.424C161.283 38.6187 159.78 39.216 157.802 39.216C156.458 39.216 155.216 38.9173 154.078 38.32C152.939 37.704 152.034 36.8453 151.362 35.744C150.69 34.624 150.354 33.336 150.354 31.88C150.354 30.4427 150.69 29.1733 151.362 28.072C152.034 26.952 152.939 26.0933 154.078 25.496C155.216 24.88 156.458 24.572 157.802 24.572C159.967 24.572 161.554 25.272 162.562 26.672V24.824H167.63ZM159.062 34.988C160.014 34.988 160.798 34.6987 161.414 34.12C162.048 33.5413 162.366 32.7947 162.366 31.88C162.366 30.9653 162.058 30.228 161.442 29.668C160.826 29.0893 160.032 28.8 159.062 28.8C158.091 28.8 157.288 29.0893 156.654 29.668C156.038 30.228 155.73 30.9653 155.73 31.88C155.73 32.7947 156.047 33.5413 156.682 34.12C157.316 34.6987 158.11 34.988 159.062 34.988ZM176.116 26.644C176.657 25.9533 177.357 25.44 178.216 25.104C179.093 24.7493 180.092 24.572 181.212 24.572V29.36C180.727 29.304 180.325 29.276 180.008 29.276C178.869 29.276 177.973 29.584 177.32 30.2C176.685 30.816 176.368 31.7587 176.368 33.028V40H171.048V24.824H176.116V26.644ZM199.86 24.824L193.308 40.616C192.543 42.4827 191.609 43.7893 190.508 44.536C189.407 45.3013 188.063 45.684 186.476 45.684C185.673 45.684 184.861 45.5533 184.04 45.292C183.237 45.0493 182.584 44.7227 182.08 44.312L183.928 40.588C184.227 40.868 184.581 41.0827 184.992 41.232C185.421 41.4 185.851 41.484 186.28 41.484C186.784 41.484 187.195 41.3813 187.512 41.176C187.848 40.9707 188.128 40.644 188.352 40.196L181.856 24.824H187.316L191.04 34.092L194.792 24.824H199.86ZM220.695 25.272C222.506 25.272 223.925 25.804 224.951 26.868C225.997 27.932 226.519 29.4627 226.519 31.46V40H225.119V31.572C225.119 29.9293 224.718 28.6787 223.915 27.82C223.113 26.9613 221.993 26.532 220.555 26.532C218.913 26.532 217.606 27.0453 216.635 28.072C215.683 29.0987 215.207 30.48 215.207 32.216V40H213.807V31.572C213.807 29.9293 213.406 28.6787 212.603 27.82C211.801 26.9613 210.681 26.532 209.243 26.532C207.601 26.532 206.294 27.0453 205.323 28.072C204.371 29.0987 203.895 30.48 203.895 32.216V40H202.495V25.384H203.839V28.52C204.325 27.4933 205.043 26.7 205.995 26.14C206.966 25.5613 208.114 25.272 209.439 25.272C210.765 25.272 211.885 25.5707 212.799 26.168C213.733 26.7653 214.395 27.6427 214.787 28.8C215.273 27.7173 216.029 26.8587 217.055 26.224C218.101 25.5893 219.314 25.272 220.695 25.272ZM237.228 25.272C239.039 25.272 240.429 25.7387 241.4 26.672C242.371 27.5867 242.856 28.94 242.856 30.732V40H241.512V37.396C241.045 38.2547 240.364 38.9267 239.468 39.412C238.572 39.8787 237.499 40.112 236.248 40.112C234.624 40.112 233.336 39.7293 232.384 38.964C231.451 38.1987 230.984 37.1907 230.984 35.94C230.984 34.7267 231.413 33.7467 232.272 33C233.149 32.2347 234.54 31.852 236.444 31.852H241.456V30.676C241.456 29.3133 241.083 28.2773 240.336 27.568C239.608 26.8587 238.535 26.504 237.116 26.504C236.145 26.504 235.212 26.672 234.316 27.008C233.439 27.344 232.692 27.792 232.076 28.352L231.376 27.344C232.104 26.6907 232.981 26.1867 234.008 25.832C235.035 25.4587 236.108 25.272 237.228 25.272ZM236.444 38.964C237.657 38.964 238.684 38.684 239.524 38.124C240.383 37.564 241.027 36.752 241.456 35.688V32.944H236.472C235.035 32.944 233.989 33.2053 233.336 33.728C232.701 34.2507 232.384 34.9693 232.384 35.884C232.384 36.836 232.739 37.592 233.448 38.152C234.157 38.6933 235.156 38.964 236.444 38.964ZM254.364 40.112C252.982 40.112 251.732 39.7947 250.612 39.16C249.51 38.5253 248.642 37.648 248.008 36.528C247.373 35.3893 247.056 34.1107 247.056 32.692C247.056 31.2733 247.373 30.004 248.008 28.884C248.642 27.7453 249.51 26.8587 250.612 26.224C251.732 25.5893 252.982 25.272 254.364 25.272C255.745 25.272 256.986 25.5893 258.088 26.224C259.208 26.8587 260.085 27.7453 260.72 28.884C261.354 30.004 261.672 31.2733 261.672 32.692C261.672 34.1107 261.354 35.3893 260.72 36.528C260.085 37.648 259.208 38.5253 258.088 39.16C256.986 39.7947 255.745 40.112 254.364 40.112ZM254.364 38.852C255.484 38.852 256.482 38.5907 257.36 38.068C258.256 37.5453 258.956 36.8173 259.46 35.884C259.982 34.9507 260.244 33.8867 260.244 32.692C260.244 31.4973 259.982 30.4333 259.46 29.5C258.956 28.5667 258.256 27.8387 257.36 27.316C256.482 26.7933 255.484 26.532 254.364 26.532C253.244 26.532 252.236 26.7933 251.34 27.316C250.462 27.8387 249.762 28.5667 249.24 29.5C248.736 30.4333 248.484 31.4973 248.484 32.692C248.484 33.8867 248.736 34.9507 249.24 35.884C249.762 36.8173 250.462 37.5453 251.34 38.068C252.236 38.5907 253.244 38.852 254.364 38.852Z" fill="#395F2E"/>
</svg>
