<svg width="520" height="437" viewBox="0 0 520 437" fill="none" xmlns="http://www.w3.org/2000/svg">
<path d="M27.7454 146.569H31.2974V180.169H27.7454V146.569ZM54.8058 178.633C54.1658 179.209 53.3658 179.657 52.4058 179.977C51.4778 180.265 50.5018 180.409 49.4778 180.409C47.1098 180.409 45.2858 179.769 44.0058 178.489C42.7258 177.209 42.0858 175.401 42.0858 173.065V157.801H37.5738V154.921H42.0858V149.401H45.4938V154.921H53.1738V157.801H45.4938V172.873C45.4938 174.377 45.8618 175.529 46.5978 176.329C47.3658 177.097 48.4538 177.481 49.8618 177.481C50.5658 177.481 51.2378 177.369 51.8778 177.145C52.5498 176.921 53.1258 176.601 53.6058 176.185L54.8058 178.633ZM73.5723 154.921H76.9803V180.169H73.5723V154.921ZM75.3003 149.401C74.5963 149.401 74.0043 149.161 73.5243 148.681C73.0443 148.201 72.8043 147.625 72.8043 146.953C72.8043 146.313 73.0443 145.753 73.5243 145.273C74.0043 144.793 74.5963 144.553 75.3003 144.553C76.0043 144.553 76.5963 144.793 77.0763 145.273C77.5563 145.721 77.7963 146.265 77.7963 146.905C77.7963 147.609 77.5563 148.201 77.0763 148.681C76.5963 149.161 76.0043 149.401 75.3003 149.401ZM93.2309 180.409C91.1829 180.409 89.2149 180.121 87.3269 179.545C85.4709 178.937 84.0149 178.185 82.9589 177.289L84.4949 174.601C85.5509 175.433 86.8789 176.121 88.4789 176.665C90.0789 177.177 91.7429 177.433 93.4709 177.433C95.7749 177.433 97.4709 177.081 98.5589 176.377C99.6789 175.641 100.239 174.617 100.239 173.305C100.239 172.377 99.9349 171.657 99.3269 171.145C98.7189 170.601 97.9509 170.201 97.0229 169.945C96.0949 169.657 94.8629 169.385 93.3269 169.129C91.2789 168.745 89.6309 168.361 88.3829 167.977C87.1349 167.561 86.0629 166.873 85.1669 165.913C84.3029 164.953 83.8709 163.625 83.8709 161.929C83.8709 159.817 84.7509 158.089 86.5109 156.745C88.2709 155.401 90.7189 154.729 93.8549 154.729C95.4869 154.729 97.1189 154.953 98.7509 155.401C100.383 155.817 101.727 156.377 102.783 157.081L101.295 159.817C99.2149 158.377 96.7349 157.657 93.8549 157.657C91.6789 157.657 90.0309 158.041 88.9109 158.809C87.8229 159.577 87.2789 160.585 87.2789 161.833C87.2789 162.793 87.5829 163.561 88.1909 164.137C88.8309 164.713 89.6149 165.145 90.5429 165.433C91.4709 165.689 92.7509 165.961 94.3829 166.249C96.3989 166.633 98.0149 167.017 99.2309 167.401C100.447 167.785 101.487 168.441 102.351 169.369C103.215 170.297 103.647 171.577 103.647 173.209C103.647 175.417 102.719 177.177 100.863 178.489C99.0389 179.769 96.4949 180.409 93.2309 180.409ZM130.862 147.193C129.39 147.193 128.27 147.593 127.502 148.393C126.766 149.193 126.398 150.377 126.398 151.945V154.921H134.174V157.801H126.494V180.169H123.086V157.801H118.574V154.921H123.086V151.801C123.086 149.497 123.742 147.673 125.054 146.329C126.398 144.985 128.286 144.313 130.718 144.313C131.678 144.313 132.606 144.457 133.502 144.745C134.398 145.001 135.15 145.385 135.758 145.897L134.606 148.441C133.614 147.609 132.366 147.193 130.862 147.193ZM147.139 154.729C150.435 154.729 152.963 155.561 154.723 157.225C156.483 158.857 157.363 161.289 157.363 164.521V180.169H154.099V176.233C153.331 177.545 152.195 178.569 150.691 179.305C149.219 180.041 147.459 180.409 145.411 180.409C142.595 180.409 140.355 179.737 138.691 178.393C137.027 177.049 136.195 175.273 136.195 173.065C136.195 170.921 136.963 169.193 138.499 167.881C140.067 166.569 142.547 165.913 145.939 165.913H153.955V164.377C153.955 162.201 153.347 160.553 152.131 159.433C150.915 158.281 149.139 157.705 146.803 157.705C145.203 157.705 143.667 157.977 142.195 158.521C140.723 159.033 139.459 159.753 138.403 160.681L136.867 158.137C138.147 157.049 139.683 156.217 141.475 155.641C143.267 155.033 145.155 154.729 147.139 154.729ZM145.939 177.721C147.859 177.721 149.507 177.289 150.883 176.425C152.259 175.529 153.283 174.249 153.955 172.585V168.457H146.035C141.715 168.457 139.555 169.961 139.555 172.969C139.555 174.441 140.115 175.609 141.235 176.473C142.355 177.305 143.923 177.721 145.939 177.721ZM179.915 178.633C179.275 179.209 178.475 179.657 177.515 179.977C176.587 180.265 175.611 180.409 174.587 180.409C172.219 180.409 170.395 179.769 169.115 178.489C167.835 177.209 167.195 175.401 167.195 173.065V157.801H162.683V154.921H167.195V149.401H170.603V154.921H178.283V157.801H170.603V172.873C170.603 174.377 170.971 175.529 171.707 176.329C172.475 177.097 173.563 177.481 174.971 177.481C175.675 177.481 176.347 177.369 176.987 177.145C177.659 176.921 178.235 176.601 178.715 176.185L179.915 178.633ZM207.213 168.601H186.093C186.285 171.225 187.293 173.353 189.117 174.985C190.941 176.585 193.245 177.385 196.029 177.385C197.597 177.385 199.037 177.113 200.349 176.569C201.661 175.993 202.797 175.161 203.757 174.073L205.677 176.281C204.557 177.625 203.149 178.649 201.453 179.353C199.789 180.057 197.949 180.409 195.933 180.409C193.341 180.409 191.037 179.865 189.021 178.777C187.037 177.657 185.485 176.121 184.365 174.169C183.245 172.217 182.685 170.009 182.685 167.545C182.685 165.081 183.213 162.873 184.269 160.921C185.357 158.969 186.829 157.449 188.685 156.361C190.573 155.273 192.685 154.729 195.021 154.729C197.357 154.729 199.453 155.273 201.309 156.361C203.165 157.449 204.621 158.969 205.677 160.921C206.733 162.841 207.261 165.049 207.261 167.545L207.213 168.601ZM195.021 157.657C192.589 157.657 190.541 158.441 188.877 160.009C187.245 161.545 186.317 163.561 186.093 166.057H203.997C203.773 163.561 202.829 161.545 201.165 160.009C199.533 158.441 197.485 157.657 195.021 157.657ZM237.237 144.553V180.169H233.973V175.177C232.949 176.873 231.589 178.169 229.893 179.065C228.229 179.961 226.341 180.409 224.229 180.409C221.861 180.409 219.717 179.865 217.797 178.777C215.877 177.689 214.373 176.169 213.285 174.217C212.197 172.265 211.653 170.041 211.653 167.545C211.653 165.049 212.197 162.825 213.285 160.873C214.373 158.921 215.877 157.417 217.797 156.361C219.717 155.273 221.861 154.729 224.229 154.729C226.277 154.729 228.117 155.161 229.749 156.025C231.413 156.857 232.773 158.089 233.829 159.721V144.553H237.237ZM224.517 177.385C226.277 177.385 227.861 176.985 229.269 176.185C230.709 175.353 231.829 174.185 232.629 172.681C233.461 171.177 233.877 169.465 233.877 167.545C233.877 165.625 233.461 163.913 232.629 162.409C231.829 160.905 230.709 159.753 229.269 158.953C227.861 158.121 226.277 157.705 224.517 157.705C222.725 157.705 221.109 158.121 219.669 158.953C218.261 159.753 217.141 160.905 216.309 162.409C215.509 163.913 215.109 165.625 215.109 167.545C215.109 169.465 215.509 171.177 216.309 172.681C217.141 174.185 218.261 175.353 219.669 176.185C221.109 176.985 222.725 177.385 224.517 177.385ZM257.419 165.673H269.995V168.649H257.419V165.673ZM311.398 154.921L298.774 183.193C297.75 185.561 296.566 187.241 295.222 188.233C293.878 189.225 292.262 189.721 290.374 189.721C289.158 189.721 288.022 189.529 286.966 189.145C285.91 188.761 284.998 188.185 284.23 187.417L285.814 184.873C287.094 186.153 288.63 186.793 290.422 186.793C291.574 186.793 292.55 186.473 293.35 185.833C294.182 185.193 294.95 184.105 295.654 182.569L296.758 180.121L285.478 154.921H289.03L298.534 176.377L308.038 154.921H311.398ZM325.814 180.409C323.382 180.409 321.19 179.865 319.238 178.777C317.286 177.657 315.75 176.121 314.63 174.169C313.51 172.217 312.95 170.009 312.95 167.545C312.95 165.081 313.51 162.873 314.63 160.921C315.75 158.969 317.286 157.449 319.238 156.361C321.19 155.273 323.382 154.729 325.814 154.729C328.246 154.729 330.438 155.273 332.39 156.361C334.342 157.449 335.862 158.969 336.95 160.921C338.07 162.873 338.63 165.081 338.63 167.545C338.63 170.009 338.07 172.217 336.95 174.169C335.862 176.121 334.342 177.657 332.39 178.777C330.438 179.865 328.246 180.409 325.814 180.409ZM325.814 177.385C327.606 177.385 329.206 176.985 330.614 176.185C332.054 175.353 333.174 174.185 333.974 172.681C334.774 171.177 335.174 169.465 335.174 167.545C335.174 165.625 334.774 163.913 333.974 162.409C333.174 160.905 332.054 159.753 330.614 158.953C329.206 158.121 327.606 157.705 325.814 157.705C324.022 157.705 322.406 158.121 320.966 158.953C319.558 159.753 318.438 160.905 317.606 162.409C316.806 163.913 316.406 165.625 316.406 167.545C316.406 169.465 316.806 171.177 317.606 172.681C318.438 174.185 319.558 175.353 320.966 176.185C322.406 176.985 324.022 177.385 325.814 177.385ZM368.34 154.921V180.169H365.076V175.561C364.18 177.097 362.948 178.297 361.38 179.161C359.812 179.993 358.02 180.409 356.004 180.409C352.708 180.409 350.1 179.497 348.18 177.673C346.292 175.817 345.348 173.113 345.348 169.561V154.921H348.756V169.225C348.756 171.881 349.412 173.897 350.724 175.273C352.036 176.649 353.908 177.337 356.34 177.337C358.996 177.337 361.092 176.537 362.628 174.937C364.164 173.305 364.932 171.049 364.932 168.169V154.921H368.34ZM378.269 144.313C379.005 144.313 379.613 144.569 380.093 145.081C380.573 145.561 380.813 146.169 380.813 146.905C380.813 147.289 380.749 147.705 380.621 148.153C380.525 148.569 380.381 149.065 380.189 149.641L378.125 156.265H375.821L377.501 149.353C376.957 149.193 376.525 148.905 376.205 148.489C375.885 148.041 375.725 147.513 375.725 146.905C375.725 146.137 375.965 145.513 376.445 145.033C376.925 144.553 377.533 144.313 378.269 144.313ZM388.057 144.553H391.465V180.169H388.057V144.553ZM400.947 144.553H404.355V180.169H400.947V144.553ZM448.384 168.601H427.264C427.456 171.225 428.464 173.353 430.288 174.985C432.112 176.585 434.416 177.385 437.2 177.385C438.768 177.385 440.208 177.113 441.52 176.569C442.832 175.993 443.968 175.161 444.928 174.073L446.848 176.281C445.728 177.625 444.32 178.649 442.624 179.353C440.96 180.057 439.12 180.409 437.104 180.409C434.512 180.409 432.208 179.865 430.192 178.777C428.208 177.657 426.656 176.121 425.536 174.169C424.416 172.217 423.856 170.009 423.856 167.545C423.856 165.081 424.384 162.873 425.44 160.921C426.528 158.969 428 157.449 429.856 156.361C431.744 155.273 433.856 154.729 436.192 154.729C438.528 154.729 440.624 155.273 442.48 156.361C444.336 157.449 445.792 158.969 446.848 160.921C447.904 162.841 448.432 165.049 448.432 167.545L448.384 168.601ZM436.192 157.657C433.76 157.657 431.712 158.441 430.048 160.009C428.416 161.545 427.488 163.561 427.264 166.057H445.168C444.944 163.561 444 161.545 442.336 160.009C440.704 158.441 438.656 157.657 436.192 157.657ZM463.498 154.729C466.794 154.729 469.322 155.561 471.082 157.225C472.842 158.857 473.722 161.289 473.722 164.521V180.169H470.458V176.233C469.69 177.545 468.554 178.569 467.05 179.305C465.578 180.041 463.818 180.409 461.77 180.409C458.954 180.409 456.714 179.737 455.05 178.393C453.386 177.049 452.554 175.273 452.554 173.065C452.554 170.921 453.322 169.193 454.858 167.881C456.426 166.569 458.906 165.913 462.298 165.913H470.314V164.377C470.314 162.201 469.706 160.553 468.49 159.433C467.274 158.281 465.498 157.705 463.162 157.705C461.562 157.705 460.026 157.977 458.554 158.521C457.082 159.033 455.818 159.753 454.762 160.681L453.226 158.137C454.506 157.049 456.042 156.217 457.834 155.641C459.626 155.033 461.514 154.729 463.498 154.729ZM462.298 177.721C464.218 177.721 465.866 177.289 467.242 176.425C468.618 175.529 469.642 174.249 470.314 172.585V168.457H462.394C458.074 168.457 455.914 169.961 455.914 172.969C455.914 174.441 456.474 175.609 457.594 176.473C458.714 177.305 460.282 177.721 462.298 177.721ZM496.275 178.633C495.635 179.209 494.835 179.657 493.875 179.977C492.947 180.265 491.971 180.409 490.947 180.409C488.579 180.409 486.755 179.769 485.475 178.489C484.195 177.209 483.555 175.401 483.555 173.065V157.801H479.043V154.921H483.555V149.401H486.963V154.921H494.643V157.801H486.963V172.873C486.963 174.377 487.331 175.529 488.067 176.329C488.835 177.097 489.923 177.481 491.331 177.481C492.035 177.481 492.707 177.369 493.347 177.145C494.019 176.921 494.595 176.601 495.075 176.185L496.275 178.633ZM93.7385 239.745C91.4665 239.745 89.3705 239.329 87.4505 238.497C85.5625 237.633 84.0105 236.417 82.7945 234.849L87.1145 229.665C88.9385 232.129 91.0185 233.361 93.3545 233.361C96.5225 233.361 98.1065 231.505 98.1065 227.793V211.809H86.2985V205.569H105.835V227.361C105.835 231.489 104.811 234.593 102.763 236.673C100.715 238.721 97.7065 239.745 93.7385 239.745ZM123.403 212.961C127.403 212.961 130.475 213.921 132.619 215.841C134.763 217.729 135.835 220.593 135.835 224.433V239.169H128.827V235.953C127.419 238.353 124.795 239.553 120.955 239.553C118.971 239.553 117.243 239.217 115.771 238.545C114.331 237.873 113.227 236.945 112.459 235.761C111.691 234.577 111.307 233.233 111.307 231.729C111.307 229.329 112.203 227.441 113.995 226.065C115.819 224.689 118.619 224.001 122.395 224.001H128.347C128.347 222.369 127.851 221.121 126.859 220.257C125.867 219.361 124.379 218.913 122.395 218.913C121.019 218.913 119.659 219.137 118.315 219.585C117.003 220.001 115.883 220.577 114.955 221.313L112.267 216.081C113.675 215.089 115.355 214.321 117.307 213.777C119.291 213.233 121.323 212.961 123.403 212.961ZM122.827 234.513C124.107 234.513 125.243 234.225 126.235 233.649C127.227 233.041 127.931 232.161 128.347 231.009V228.369H123.211C120.139 228.369 118.603 229.377 118.603 231.393C118.603 232.353 118.971 233.121 119.707 233.697C120.475 234.241 121.515 234.513 122.827 234.513ZM157.876 212.961C160.276 212.961 162.452 213.521 164.404 214.641C166.388 215.729 167.94 217.281 169.06 219.297C170.18 221.281 170.74 223.601 170.74 226.257C170.74 228.913 170.18 231.249 169.06 233.265C167.94 235.249 166.388 236.801 164.404 237.921C162.452 239.009 160.276 239.553 157.876 239.553C154.58 239.553 151.988 238.513 150.1 236.433V248.481H142.612V213.345H149.764V216.321C151.62 214.081 154.324 212.961 157.876 212.961ZM156.58 233.409C158.5 233.409 160.068 232.769 161.284 231.489C162.532 230.177 163.156 228.433 163.156 226.257C163.156 224.081 162.532 222.353 161.284 221.073C160.068 219.761 158.5 219.105 156.58 219.105C154.66 219.105 153.076 219.761 151.828 221.073C150.612 222.353 150.004 224.081 150.004 226.257C150.004 228.433 150.612 230.177 151.828 231.489C153.076 232.769 154.66 233.409 156.58 233.409ZM185.747 212.961C189.747 212.961 192.819 213.921 194.963 215.841C197.107 217.729 198.179 220.593 198.179 224.433V239.169H191.171V235.953C189.763 238.353 187.139 239.553 183.299 239.553C181.315 239.553 179.587 239.217 178.115 238.545C176.675 237.873 175.571 236.945 174.803 235.761C174.035 234.577 173.651 233.233 173.651 231.729C173.651 229.329 174.547 227.441 176.339 226.065C178.163 224.689 180.963 224.001 184.739 224.001H190.691C190.691 222.369 190.195 221.121 189.203 220.257C188.211 219.361 186.723 218.913 184.739 218.913C183.363 218.913 182.003 219.137 180.659 219.585C179.347 220.001 178.227 220.577 177.299 221.313L174.611 216.081C176.019 215.089 177.699 214.321 179.651 213.777C181.635 213.233 183.667 212.961 185.747 212.961ZM185.171 234.513C186.451 234.513 187.587 234.225 188.579 233.649C189.571 233.041 190.275 232.161 190.691 231.009V228.369H185.555C182.483 228.369 180.947 229.377 180.947 231.393C180.947 232.353 181.315 233.121 182.051 233.697C182.819 234.241 183.859 234.513 185.171 234.513ZM220.652 212.961C223.852 212.961 226.428 213.921 228.38 215.841C230.364 217.761 231.356 220.609 231.356 224.385V239.169H223.868V225.537C223.868 223.489 223.42 221.969 222.524 220.977C221.628 219.953 220.332 219.441 218.636 219.441C216.748 219.441 215.244 220.033 214.124 221.217C213.004 222.369 212.444 224.097 212.444 226.401V239.169H204.956V213.345H212.108V216.369C213.1 215.281 214.332 214.449 215.804 213.873C217.276 213.265 218.892 212.961 220.652 212.961ZM263.721 226.353C263.721 226.449 263.673 227.121 263.577 228.369H244.041C244.393 229.969 245.225 231.233 246.537 232.161C247.849 233.089 249.481 233.553 251.433 233.553C252.777 233.553 253.961 233.361 254.985 232.977C256.041 232.561 257.017 231.921 257.913 231.057L261.897 235.377C259.465 238.161 255.913 239.553 251.241 239.553C248.329 239.553 245.753 238.993 243.513 237.873C241.273 236.721 239.545 235.137 238.329 233.121C237.113 231.105 236.505 228.817 236.505 226.257C236.505 223.729 237.097 221.457 238.281 219.441C239.497 217.393 241.145 215.809 243.225 214.689C245.337 213.537 247.689 212.961 250.281 212.961C252.809 212.961 255.097 213.505 257.145 214.593C259.193 215.681 260.793 217.249 261.945 219.297C263.129 221.313 263.721 223.665 263.721 226.353ZM250.329 218.625C248.633 218.625 247.209 219.105 246.057 220.065C244.905 221.025 244.201 222.337 243.945 224.001H256.665C256.409 222.369 255.705 221.073 254.553 220.113C253.401 219.121 251.993 218.625 250.329 218.625ZM277.394 239.553C275.25 239.553 273.154 239.297 271.106 238.785C269.058 238.241 267.426 237.569 266.21 236.769L268.706 231.393C269.858 232.129 271.25 232.737 272.882 233.217C274.514 233.665 276.114 233.889 277.682 233.889C280.85 233.889 282.434 233.105 282.434 231.537C282.434 230.801 282.002 230.273 281.138 229.953C280.274 229.633 278.946 229.361 277.154 229.137C275.042 228.817 273.298 228.449 271.922 228.033C270.546 227.617 269.346 226.881 268.322 225.825C267.33 224.769 266.834 223.265 266.834 221.313C266.834 219.681 267.298 218.241 268.226 216.993C269.186 215.713 270.562 214.721 272.354 214.017C274.178 213.313 276.322 212.961 278.786 212.961C280.61 212.961 282.418 213.169 284.21 213.585C286.034 213.969 287.538 214.513 288.722 215.217L286.226 220.545C283.954 219.265 281.474 218.625 278.786 218.625C277.186 218.625 275.986 218.849 275.186 219.297C274.386 219.745 273.986 220.321 273.986 221.025C273.986 221.825 274.418 222.385 275.282 222.705C276.146 223.025 277.522 223.329 279.41 223.617C281.522 223.969 283.25 224.353 284.594 224.769C285.938 225.153 287.106 225.873 288.098 226.929C289.09 227.985 289.586 229.457 289.586 231.345C289.586 232.945 289.106 234.369 288.146 235.617C287.186 236.865 285.778 237.841 283.922 238.545C282.098 239.217 279.922 239.553 277.394 239.553ZM319.502 226.353C319.502 226.449 319.454 227.121 319.358 228.369H299.822C300.174 229.969 301.006 231.233 302.318 232.161C303.63 233.089 305.262 233.553 307.214 233.553C308.558 233.553 309.742 233.361 310.766 232.977C311.822 232.561 312.798 231.921 313.694 231.057L317.678 235.377C315.246 238.161 311.694 239.553 307.022 239.553C304.11 239.553 301.534 238.993 299.294 237.873C297.054 236.721 295.326 235.137 294.11 233.121C292.894 231.105 292.286 228.817 292.286 226.257C292.286 223.729 292.878 221.457 294.062 219.441C295.278 217.393 296.926 215.809 299.006 214.689C301.118 213.537 303.47 212.961 306.062 212.961C308.59 212.961 310.878 213.505 312.926 214.593C314.974 215.681 316.574 217.249 317.726 219.297C318.91 221.313 319.502 223.665 319.502 226.353ZM306.11 218.625C304.414 218.625 302.99 219.105 301.838 220.065C300.686 221.025 299.982 222.337 299.726 224.001H312.446C312.19 222.369 311.486 221.073 310.334 220.113C309.182 219.121 307.774 218.625 306.11 218.625ZM346.289 213.921H352.913V219.681H346.481V239.169H338.993V219.681H335.009V213.921H338.993V212.769C338.993 209.825 339.857 207.489 341.585 205.761C343.345 204.033 345.809 203.169 348.977 203.169C350.097 203.169 351.153 203.297 352.145 203.553C353.169 203.777 354.017 204.113 354.689 204.561L352.721 209.985C351.857 209.377 350.849 209.073 349.697 209.073C347.425 209.073 346.289 210.321 346.289 212.817V213.921ZM368.603 239.553C365.883 239.553 363.435 238.993 361.259 237.873C359.115 236.721 357.435 235.137 356.219 233.121C355.003 231.105 354.395 228.817 354.395 226.257C354.395 223.697 355.003 221.409 356.219 219.393C357.435 217.377 359.115 215.809 361.259 214.689C363.435 213.537 365.883 212.961 368.603 212.961C371.323 212.961 373.755 213.537 375.899 214.689C378.043 215.809 379.723 217.377 380.939 219.393C382.155 221.409 382.763 223.697 382.763 226.257C382.763 228.817 382.155 231.105 380.939 233.121C379.723 235.137 378.043 236.721 375.899 237.873C373.755 238.993 371.323 239.553 368.603 239.553ZM368.603 233.409C370.523 233.409 372.091 232.769 373.307 231.489C374.555 230.177 375.179 228.433 375.179 226.257C375.179 224.081 374.555 222.353 373.307 221.073C372.091 219.761 370.523 219.105 368.603 219.105C366.683 219.105 365.099 219.761 363.851 221.073C362.603 222.353 361.979 224.081 361.979 226.257C361.979 228.433 362.603 230.177 363.851 231.489C365.099 232.769 366.683 233.409 368.603 233.409ZM400.057 239.553C397.337 239.553 394.889 238.993 392.713 237.873C390.569 236.721 388.889 235.137 387.673 233.121C386.457 231.105 385.849 228.817 385.849 226.257C385.849 223.697 386.457 221.409 387.673 219.393C388.889 217.377 390.569 215.809 392.713 214.689C394.889 213.537 397.337 212.961 400.057 212.961C402.777 212.961 405.209 213.537 407.353 214.689C409.497 215.809 411.177 217.377 412.393 219.393C413.609 221.409 414.217 223.697 414.217 226.257C414.217 228.817 413.609 231.105 412.393 233.121C411.177 235.137 409.497 236.721 407.353 237.873C405.209 238.993 402.777 239.553 400.057 239.553ZM400.057 233.409C401.977 233.409 403.545 232.769 404.761 231.489C406.009 230.177 406.633 228.433 406.633 226.257C406.633 224.081 406.009 222.353 404.761 221.073C403.545 219.761 401.977 219.105 400.057 219.105C398.137 219.105 396.553 219.761 395.305 221.073C394.057 222.353 393.433 224.081 393.433 226.257C393.433 228.433 394.057 230.177 395.305 231.489C396.553 232.769 398.137 233.409 400.057 233.409ZM445.526 203.553V239.169H438.374V236.193C436.518 238.433 433.83 239.553 430.31 239.553C427.878 239.553 425.67 239.009 423.686 237.921C421.734 236.833 420.198 235.281 419.078 233.265C417.958 231.249 417.398 228.913 417.398 226.257C417.398 223.601 417.958 221.265 419.078 219.249C420.198 217.233 421.734 215.681 423.686 214.593C425.67 213.505 427.878 212.961 430.31 212.961C433.606 212.961 436.182 214.001 438.038 216.081V203.553H445.526ZM431.606 233.409C433.494 233.409 435.062 232.769 436.31 231.489C437.558 230.177 438.182 228.433 438.182 226.257C438.182 224.081 437.558 222.353 436.31 221.073C435.062 219.761 433.494 219.105 431.606 219.105C429.686 219.105 428.102 219.761 426.854 221.073C425.606 222.353 424.982 224.081 424.982 226.257C424.982 228.433 425.606 230.177 426.854 231.489C428.102 232.769 429.686 233.409 431.606 233.409ZM204.267 296.633C203.627 297.209 202.827 297.657 201.867 297.977C200.939 298.265 199.963 298.409 198.939 298.409C196.571 298.409 194.747 297.769 193.467 296.489C192.187 295.209 191.547 293.401 191.547 291.065V275.801H187.035V272.921H191.547V267.401H194.955V272.921H202.635V275.801H194.955V290.873C194.955 292.377 195.323 293.529 196.059 294.329C196.827 295.097 197.915 295.481 199.323 295.481C200.027 295.481 200.699 295.369 201.339 295.145C202.011 294.921 202.587 294.601 203.067 294.185L204.267 296.633ZM219.9 298.409C217.468 298.409 215.276 297.865 213.324 296.777C211.372 295.657 209.836 294.121 208.716 292.169C207.596 290.217 207.036 288.009 207.036 285.545C207.036 283.081 207.596 280.873 208.716 278.921C209.836 276.969 211.372 275.449 213.324 274.361C215.276 273.273 217.468 272.729 219.9 272.729C222.332 272.729 224.524 273.273 226.476 274.361C228.428 275.449 229.948 276.969 231.036 278.921C232.156 280.873 232.716 283.081 232.716 285.545C232.716 288.009 232.156 290.217 231.036 292.169C229.948 294.121 228.428 295.657 226.476 296.777C224.524 297.865 222.332 298.409 219.9 298.409ZM219.9 295.385C221.692 295.385 223.292 294.985 224.7 294.185C226.14 293.353 227.26 292.185 228.06 290.681C228.86 289.177 229.26 287.465 229.26 285.545C229.26 283.625 228.86 281.913 228.06 280.409C227.26 278.905 226.14 277.753 224.7 276.953C223.292 276.121 221.692 275.705 219.9 275.705C218.108 275.705 216.492 276.121 215.052 276.953C213.644 277.753 212.524 278.905 211.692 280.409C210.892 281.913 210.492 283.625 210.492 285.545C210.492 287.465 210.892 289.177 211.692 290.681C212.524 292.185 213.644 293.353 215.052 294.185C216.492 294.985 218.108 295.385 219.9 295.385ZM262.714 262.553V298.169H259.45V293.177C258.426 294.873 257.066 296.169 255.37 297.065C253.706 297.961 251.818 298.409 249.706 298.409C247.338 298.409 245.194 297.865 243.274 296.777C241.354 295.689 239.85 294.169 238.762 292.217C237.674 290.265 237.13 288.041 237.13 285.545C237.13 283.049 237.674 280.825 238.762 278.873C239.85 276.921 241.354 275.417 243.274 274.361C245.194 273.273 247.338 272.729 249.706 272.729C251.754 272.729 253.594 273.161 255.226 274.025C256.89 274.857 258.25 276.089 259.306 277.721V262.553H262.714ZM249.994 295.385C251.754 295.385 253.338 294.985 254.746 294.185C256.186 293.353 257.306 292.185 258.106 290.681C258.938 289.177 259.354 287.465 259.354 285.545C259.354 283.625 258.938 281.913 258.106 280.409C257.306 278.905 256.186 277.753 254.746 276.953C253.338 276.121 251.754 275.705 249.994 275.705C248.202 275.705 246.586 276.121 245.146 276.953C243.738 277.753 242.618 278.905 241.786 280.409C240.986 281.913 240.586 283.625 240.586 285.545C240.586 287.465 240.986 289.177 241.786 290.681C242.618 292.185 243.738 293.353 245.146 294.185C246.586 294.985 248.202 295.385 249.994 295.385ZM281.037 272.729C284.333 272.729 286.861 273.561 288.621 275.225C290.381 276.857 291.261 279.289 291.261 282.521V298.169H287.997V294.233C287.229 295.545 286.093 296.569 284.589 297.305C283.117 298.041 281.357 298.409 279.309 298.409C276.493 298.409 274.253 297.737 272.589 296.393C270.925 295.049 270.093 293.273 270.093 291.065C270.093 288.921 270.861 287.193 272.397 285.881C273.965 284.569 276.445 283.913 279.837 283.913H287.853V282.377C287.853 280.201 287.245 278.553 286.029 277.433C284.813 276.281 283.037 275.705 280.701 275.705C279.101 275.705 277.565 275.977 276.093 276.521C274.621 277.033 273.357 277.753 272.301 278.681L270.765 276.137C272.045 275.049 273.581 274.217 275.373 273.641C277.165 273.033 279.053 272.729 281.037 272.729ZM279.837 295.721C281.757 295.721 283.405 295.289 284.781 294.425C286.157 293.529 287.181 292.249 287.853 290.585V286.457H279.933C275.613 286.457 273.453 287.961 273.453 290.969C273.453 292.441 274.013 293.609 275.133 294.473C276.253 295.305 277.821 295.721 279.837 295.721ZM321.265 272.921L308.641 301.193C307.617 303.561 306.433 305.241 305.089 306.233C303.745 307.225 302.129 307.721 300.241 307.721C299.025 307.721 297.889 307.529 296.833 307.145C295.777 306.761 294.865 306.185 294.097 305.417L295.681 302.873C296.961 304.153 298.497 304.793 300.289 304.793C301.441 304.793 302.417 304.473 303.217 303.833C304.049 303.193 304.817 302.105 305.521 300.569L306.625 298.121L295.345 272.921H298.897L308.401 294.377L317.905 272.921H321.265ZM325.537 264.569H329.569L328.849 288.089H326.209L325.537 264.569ZM327.553 298.409C326.849 298.409 326.241 298.169 325.729 297.689C325.249 297.177 325.009 296.585 325.009 295.913C325.009 295.209 325.249 294.633 325.729 294.185C326.209 293.705 326.817 293.465 327.553 293.465C328.257 293.465 328.849 293.705 329.329 294.185C329.809 294.633 330.049 295.209 330.049 295.913C330.049 296.585 329.809 297.177 329.329 297.689C328.849 298.169 328.257 298.409 327.553 298.409Z" fill="#395F2E"/>
<rect x="87" y="344.169" width="346" height="92" rx="46" fill="#5F8953"/>
<path d="M146.771 380.569V400.169H145.063L132.463 384.265V400.169H130.391V380.569H132.099L144.727 396.473V380.569H146.771ZM158.769 400.309C157.35 400.309 156.071 399.992 154.933 399.357C153.794 398.704 152.898 397.808 152.245 396.669C151.591 395.531 151.265 394.243 151.265 392.805C151.265 391.368 151.591 390.08 152.245 388.941C152.898 387.803 153.794 386.916 154.933 386.281C156.071 385.647 157.35 385.329 158.769 385.329C160.187 385.329 161.466 385.647 162.605 386.281C163.743 386.916 164.63 387.803 165.265 388.941C165.918 390.08 166.245 391.368 166.245 392.805C166.245 394.243 165.918 395.531 165.265 396.669C164.63 397.808 163.743 398.704 162.605 399.357C161.466 399.992 160.187 400.309 158.769 400.309ZM158.769 398.545C159.814 398.545 160.747 398.312 161.569 397.845C162.409 397.36 163.062 396.679 163.529 395.801C163.995 394.924 164.229 393.925 164.229 392.805C164.229 391.685 163.995 390.687 163.529 389.809C163.062 388.932 162.409 388.26 161.569 387.793C160.747 387.308 159.814 387.065 158.769 387.065C157.723 387.065 156.781 387.308 155.941 387.793C155.119 388.26 154.466 388.932 153.981 389.809C153.514 390.687 153.281 391.685 153.281 392.805C153.281 393.925 153.514 394.924 153.981 395.801C154.466 396.679 155.119 397.36 155.941 397.845C156.781 398.312 157.723 398.545 158.769 398.545ZM199.247 385.441L193.675 400.169H191.799L187.151 388.101L182.503 400.169H180.627L175.083 385.441H176.987L181.607 397.957L186.339 385.441H188.047L192.751 397.957L197.427 385.441H199.247ZM206.955 385.329C208.878 385.329 210.353 385.815 211.379 386.785C212.406 387.737 212.919 389.156 212.919 391.041V400.169H211.015V397.873C210.567 398.639 209.905 399.236 209.027 399.665C208.169 400.095 207.142 400.309 205.947 400.309C204.305 400.309 202.998 399.917 202.027 399.133C201.057 398.349 200.571 397.313 200.571 396.025C200.571 394.775 201.019 393.767 201.915 393.001C202.83 392.236 204.277 391.853 206.255 391.853H210.931V390.957C210.931 389.688 210.577 388.727 209.867 388.073C209.158 387.401 208.122 387.065 206.759 387.065C205.826 387.065 204.93 387.224 204.071 387.541C203.213 387.84 202.475 388.26 201.859 388.801L200.963 387.317C201.71 386.683 202.606 386.197 203.651 385.861C204.697 385.507 205.798 385.329 206.955 385.329ZM206.255 398.741C207.375 398.741 208.337 398.489 209.139 397.985C209.942 397.463 210.539 396.716 210.931 395.745V393.337H206.311C203.791 393.337 202.531 394.215 202.531 395.969C202.531 396.828 202.858 397.509 203.511 398.013C204.165 398.499 205.079 398.741 206.255 398.741ZM230.421 385.441L223.057 401.933C222.46 403.315 221.769 404.295 220.985 404.873C220.201 405.452 219.259 405.741 218.157 405.741C217.448 405.741 216.785 405.629 216.169 405.405C215.553 405.181 215.021 404.845 214.573 404.397L215.497 402.913C216.244 403.66 217.14 404.033 218.185 404.033C218.857 404.033 219.427 403.847 219.893 403.473C220.379 403.1 220.827 402.465 221.237 401.569L221.881 400.141L215.301 385.441H217.373L222.917 397.957L228.461 385.441H230.421ZM232.913 380.569H235.265L234.845 394.289H233.305L232.913 380.569ZM234.089 400.309C233.679 400.309 233.324 400.169 233.025 399.889C232.745 399.591 232.605 399.245 232.605 398.853C232.605 398.443 232.745 398.107 233.025 397.845C233.305 397.565 233.66 397.425 234.089 397.425C234.5 397.425 234.845 397.565 235.125 397.845C235.405 398.107 235.545 398.443 235.545 398.853C235.545 399.245 235.405 399.591 235.125 399.889C234.845 400.169 234.5 400.309 234.089 400.309ZM253.647 400.337C252.191 400.337 250.791 400.104 249.447 399.637C248.121 399.171 247.095 398.555 246.367 397.789L247.179 396.193C247.888 396.903 248.831 397.481 250.007 397.929C251.183 398.359 252.396 398.573 253.647 398.573C255.401 398.573 256.717 398.256 257.595 397.621C258.472 396.968 258.911 396.128 258.911 395.101C258.911 394.317 258.668 393.692 258.183 393.225C257.716 392.759 257.137 392.404 256.447 392.161C255.756 391.9 254.795 391.62 253.563 391.321C252.088 390.948 250.912 390.593 250.035 390.257C249.157 389.903 248.401 389.371 247.767 388.661C247.151 387.952 246.843 386.991 246.843 385.777C246.843 384.788 247.104 383.892 247.627 383.089C248.149 382.268 248.952 381.615 250.035 381.129C251.117 380.644 252.461 380.401 254.067 380.401C255.187 380.401 256.279 380.56 257.343 380.877C258.425 381.176 259.359 381.596 260.143 382.137L259.443 383.789C258.621 383.248 257.744 382.847 256.811 382.585C255.877 382.305 254.963 382.165 254.067 382.165C252.349 382.165 251.052 382.501 250.175 383.173C249.316 383.827 248.887 384.676 248.887 385.721C248.887 386.505 249.12 387.14 249.587 387.625C250.072 388.092 250.669 388.456 251.379 388.717C252.107 388.96 253.077 389.231 254.291 389.529C255.728 389.884 256.885 390.239 257.763 390.593C258.659 390.929 259.415 391.452 260.031 392.161C260.647 392.852 260.955 393.795 260.955 394.989C260.955 395.979 260.684 396.884 260.143 397.705C259.62 398.508 258.808 399.152 257.707 399.637C256.605 400.104 255.252 400.337 253.647 400.337ZM272.637 385.329C274.019 385.329 275.269 385.647 276.389 386.281C277.509 386.897 278.387 387.775 279.021 388.913C279.656 390.052 279.973 391.349 279.973 392.805C279.973 394.28 279.656 395.587 279.021 396.725C278.387 397.864 277.509 398.751 276.389 399.385C275.288 400.001 274.037 400.309 272.637 400.309C271.443 400.309 270.36 400.067 269.389 399.581C268.437 399.077 267.653 398.349 267.037 397.397V405.601H265.049V385.441H266.953V388.353C267.551 387.383 268.335 386.636 269.305 386.113C270.295 385.591 271.405 385.329 272.637 385.329ZM272.497 398.545C273.524 398.545 274.457 398.312 275.297 397.845C276.137 397.36 276.791 396.679 277.257 395.801C277.743 394.924 277.985 393.925 277.985 392.805C277.985 391.685 277.743 390.696 277.257 389.837C276.791 388.96 276.137 388.279 275.297 387.793C274.457 387.308 273.524 387.065 272.497 387.065C271.452 387.065 270.509 387.308 269.669 387.793C268.848 388.279 268.195 388.96 267.709 389.837C267.243 390.696 267.009 391.685 267.009 392.805C267.009 393.925 267.243 394.924 267.709 395.801C268.195 396.679 268.848 397.36 269.669 397.845C270.509 398.312 271.452 398.545 272.497 398.545ZM284.026 385.441H286.014V400.169H284.026V385.441ZM285.034 382.221C284.623 382.221 284.278 382.081 283.998 381.801C283.718 381.521 283.578 381.185 283.578 380.793C283.578 380.42 283.718 380.093 283.998 379.813C284.278 379.533 284.623 379.393 285.034 379.393C285.445 379.393 285.79 379.533 286.07 379.813C286.35 380.075 286.49 380.392 286.49 380.765C286.49 381.176 286.35 381.521 286.07 381.801C285.79 382.081 285.445 382.221 285.034 382.221ZM299.049 385.329C300.897 385.329 302.363 385.871 303.445 386.953C304.547 388.017 305.097 389.576 305.097 391.629V400.169H303.109V391.825C303.109 390.295 302.727 389.128 301.961 388.325C301.196 387.523 300.104 387.121 298.685 387.121C297.099 387.121 295.839 387.597 294.905 388.549C293.991 389.483 293.533 390.78 293.533 392.441V400.169H291.545V385.441H293.449V388.157C293.991 387.261 294.737 386.571 295.689 386.085C296.66 385.581 297.78 385.329 299.049 385.329ZM322.975 385.329C324.897 385.329 326.372 385.815 327.399 386.785C328.425 387.737 328.939 389.156 328.939 391.041V400.169H327.035V397.873C326.587 398.639 325.924 399.236 325.047 399.665C324.188 400.095 323.161 400.309 321.967 400.309C320.324 400.309 319.017 399.917 318.047 399.133C317.076 398.349 316.591 397.313 316.591 396.025C316.591 394.775 317.039 393.767 317.935 393.001C318.849 392.236 320.296 391.853 322.275 391.853H326.951V390.957C326.951 389.688 326.596 388.727 325.887 388.073C325.177 387.401 324.141 387.065 322.779 387.065C321.845 387.065 320.949 387.224 320.091 387.541C319.232 387.84 318.495 388.26 317.879 388.801L316.983 387.317C317.729 386.683 318.625 386.197 319.671 385.861C320.716 385.507 321.817 385.329 322.975 385.329ZM322.275 398.741C323.395 398.741 324.356 398.489 325.159 397.985C325.961 397.463 326.559 396.716 326.951 395.745V393.337H322.331C319.811 393.337 318.551 394.215 318.551 395.969C318.551 396.828 318.877 397.509 319.531 398.013C320.184 398.499 321.099 398.741 322.275 398.741ZM348.029 385.441V398.377C348.029 400.879 347.413 402.727 346.181 403.921C344.968 405.135 343.129 405.741 340.665 405.741C339.302 405.741 338.005 405.536 336.773 405.125C335.56 404.733 334.57 404.183 333.805 403.473L334.813 401.961C335.522 402.596 336.381 403.091 337.389 403.445C338.416 403.8 339.489 403.977 340.609 403.977C342.476 403.977 343.848 403.539 344.725 402.661C345.602 401.803 346.041 400.459 346.041 398.629V396.753C345.425 397.687 344.613 398.396 343.605 398.881C342.616 399.367 341.514 399.609 340.301 399.609C338.92 399.609 337.66 399.311 336.521 398.713C335.401 398.097 334.514 397.248 333.861 396.165C333.226 395.064 332.909 393.823 332.909 392.441C332.909 391.06 333.226 389.828 333.861 388.745C334.514 387.663 335.401 386.823 336.521 386.225C337.641 385.628 338.901 385.329 340.301 385.329C341.552 385.329 342.681 385.581 343.689 386.085C344.697 386.589 345.509 387.317 346.125 388.269V385.441H348.029ZM340.497 397.845C341.561 397.845 342.522 397.621 343.381 397.173C344.24 396.707 344.902 396.063 345.369 395.241C345.854 394.42 346.097 393.487 346.097 392.441C346.097 391.396 345.854 390.472 345.369 389.669C344.902 388.848 344.24 388.213 343.381 387.765C342.541 387.299 341.58 387.065 340.497 387.065C339.433 387.065 338.472 387.289 337.613 387.737C336.773 388.185 336.11 388.82 335.625 389.641C335.158 390.463 334.925 391.396 334.925 392.441C334.925 393.487 335.158 394.42 335.625 395.241C336.11 396.063 336.773 396.707 337.613 397.173C338.472 397.621 339.433 397.845 340.497 397.845ZM358.74 385.329C360.663 385.329 362.138 385.815 363.164 386.785C364.191 387.737 364.704 389.156 364.704 391.041V400.169H362.8V397.873C362.352 398.639 361.69 399.236 360.812 399.665C359.954 400.095 358.927 400.309 357.732 400.309C356.09 400.309 354.783 399.917 353.812 399.133C352.842 398.349 352.356 397.313 352.356 396.025C352.356 394.775 352.804 393.767 353.7 393.001C354.615 392.236 356.062 391.853 358.04 391.853H362.716V390.957C362.716 389.688 362.362 388.727 361.652 388.073C360.943 387.401 359.907 387.065 358.544 387.065C357.611 387.065 356.715 387.224 355.856 387.541C354.998 387.84 354.26 388.26 353.644 388.801L352.748 387.317C353.495 386.683 354.391 386.197 355.436 385.861C356.482 385.507 357.583 385.329 358.74 385.329ZM358.04 398.741C359.16 398.741 360.122 398.489 360.924 397.985C361.727 397.463 362.324 396.716 362.716 395.745V393.337H358.096C355.576 393.337 354.316 394.215 354.316 395.969C354.316 396.828 354.643 397.509 355.296 398.013C355.95 398.499 356.864 398.741 358.04 398.741ZM370.104 385.441H372.092V400.169H370.104V385.441ZM371.112 382.221C370.701 382.221 370.356 382.081 370.076 381.801C369.796 381.521 369.656 381.185 369.656 380.793C369.656 380.42 369.796 380.093 370.076 379.813C370.356 379.533 370.701 379.393 371.112 379.393C371.523 379.393 371.868 379.533 372.148 379.813C372.428 380.075 372.568 380.392 372.568 380.765C372.568 381.176 372.428 381.521 372.148 381.801C371.868 382.081 371.523 382.221 371.112 382.221ZM385.128 385.329C386.976 385.329 388.441 385.871 389.524 386.953C390.625 388.017 391.176 389.576 391.176 391.629V400.169H389.188V391.825C389.188 390.295 388.805 389.128 388.04 388.325C387.274 387.523 386.182 387.121 384.764 387.121C383.177 387.121 381.917 387.597 380.984 388.549C380.069 389.483 379.612 390.78 379.612 392.441V400.169H377.624V385.441H379.528V388.157C380.069 387.261 380.816 386.571 381.768 386.085C382.738 385.581 383.858 385.329 385.128 385.329Z" fill="white"/>
<g clip-path="url(#clip0)">
<path d="M221.475 87.5548C219.794 89.2279 219.794 91.9459 221.464 93.6191C223.148 95.296 225.862 95.296 227.539 93.6191L254.295 66.8628L248.227 60.7948L221.475 87.5548Z" fill="#395F2E"/>
<path d="M309.32 25.2635C308.433 24.3648 306.975 24.3648 306.069 25.2671L287.229 44.1105L283.974 40.8591L302.821 22.0121C303.724 21.1097 303.724 19.6594 302.832 18.7607C301.923 17.8584 300.476 17.862 299.577 18.7644L280.727 37.6114L277.468 34.3527L296.319 15.513C297.217 14.607 297.217 13.153 296.326 12.2543C295.427 11.3593 293.966 11.3593 293.064 12.2616L274.224 31.1123L270.965 27.8609L289.809 9.01388C290.718 8.11153 290.718 6.65389 289.82 5.75885C288.921 4.85285 287.463 4.85285 286.561 5.75885L267.064 25.2562C266.917 25.4023 266.833 25.5886 266.727 25.7603C260.802 32.4019 260.758 39.2371 264.346 44.8083C264.21 44.9106 264.042 44.9617 263.925 45.0823L259.443 49.5611L265.511 55.6292L269.993 51.1503C270.118 51.0297 270.165 50.869 270.271 50.7338C275.828 54.3103 282.666 54.2665 289.315 48.3446C289.494 48.2533 289.673 48.1583 289.823 48.0122L309.313 28.5185C310.23 27.6198 310.23 26.1585 309.32 25.2635Z" fill="#395F2E"/>
<path d="M247.164 42.4373C246.952 42.2364 246.704 42.1378 246.478 41.9843C249.605 35.3975 247.354 25.9503 240.329 18.9288C231.96 10.5519 220.072 8.85313 213.792 15.1294C207.512 21.4129 209.204 33.3006 217.577 41.6774C224.602 48.7026 234.046 50.9567 240.632 47.8295C240.786 48.056 240.892 48.3044 241.093 48.5053L286.586 94.0027C288.267 95.6759 290.974 95.6796 292.658 94.0027C294.335 92.3296 294.328 89.6152 292.654 87.9384L247.164 42.4373Z" fill="#395F2E"/>
</g>
<defs>
<clipPath id="clip0">
<rect width="100" height="100" fill="white" transform="translate(210 0.169434)"/>
</clipPath>
</defs>
</svg>
