<svg width="160" height="117" viewBox="0 0 160 117" fill="none" xmlns="http://www.w3.org/2000/svg">
<g filter="url(#filter0_d)">
<circle cx="79.5405" cy="40.5405" r="40.5405" fill="#5F8953"/>
</g>
<path d="M92.66 30.1996L89.8813 27.4209L78.8649 38.4372L67.8486 27.4209L65.0699 30.1996L76.0862 41.2159L65.0699 52.2323L67.8486 55.011L78.8649 43.9947L89.8813 55.011L92.66 52.2323L81.6436 41.2159L92.66 30.1996Z" fill="white"/>
<path d="M17.2817 110.64C17.0417 110.856 16.7417 111.024 16.3817 111.144C16.0337 111.252 15.6677 111.306 15.2837 111.306C14.3957 111.306 13.7117 111.066 13.2317 110.586C12.7517 110.106 12.5117 109.428 12.5117 108.552V102.828H10.8197V101.748H12.5117V99.6783H13.7897V101.748H16.6697V102.828H13.7897V108.48C13.7897 109.044 13.9277 109.476 14.2037 109.776C14.4917 110.064 14.8997 110.208 15.4277 110.208C15.6917 110.208 15.9437 110.166 16.1837 110.082C16.4357 109.998 16.6517 109.878 16.8317 109.722L17.2817 110.64ZM24.4322 101.676C25.6202 101.676 26.5622 102.024 27.2582 102.72C27.9662 103.404 28.3202 104.406 28.3202 105.726V111.216H27.0422V105.852C27.0422 104.868 26.7962 104.118 26.3042 103.602C25.8122 103.086 25.1102 102.828 24.1982 102.828C23.1782 102.828 22.3682 103.134 21.7682 103.746C21.1802 104.346 20.8862 105.18 20.8862 106.248V111.216H19.6082V97.8603H20.8862V103.404C21.2342 102.852 21.7142 102.426 22.3262 102.126C22.9382 101.826 23.6402 101.676 24.4322 101.676ZM35.1018 101.676C36.3378 101.676 37.2858 101.988 37.9458 102.612C38.6058 103.224 38.9358 104.136 38.9358 105.348V111.216H37.7118V109.74C37.4238 110.232 36.9978 110.616 36.4338 110.892C35.8818 111.168 35.2218 111.306 34.4538 111.306C33.3978 111.306 32.5578 111.054 31.9338 110.55C31.3098 110.046 30.9978 109.38 30.9978 108.552C30.9978 107.748 31.2858 107.1 31.8618 106.608C32.4498 106.116 33.3798 105.87 34.6518 105.87H37.6578V105.294C37.6578 104.478 37.4298 103.86 36.9738 103.44C36.5178 103.008 35.8518 102.792 34.9758 102.792C34.3758 102.792 33.7998 102.894 33.2478 103.098C32.6958 103.29 32.2218 103.56 31.8258 103.908L31.2498 102.954C31.7298 102.546 32.3058 102.234 32.9778 102.018C33.6498 101.79 34.3578 101.676 35.1018 101.676ZM34.6518 110.298C35.3718 110.298 35.9898 110.136 36.5058 109.812C37.0218 109.476 37.4058 108.996 37.6578 108.372V106.824H34.6878C33.0678 106.824 32.2578 107.388 32.2578 108.516C32.2578 109.068 32.4678 109.506 32.8878 109.83C33.3078 110.142 33.8958 110.298 34.6518 110.298ZM47.231 101.676C48.419 101.676 49.361 102.024 50.057 102.72C50.765 103.404 51.119 104.406 51.119 105.726V111.216H49.841V105.852C49.841 104.868 49.595 104.118 49.103 103.602C48.611 103.086 47.909 102.828 46.997 102.828C45.977 102.828 45.167 103.134 44.567 103.746C43.979 104.346 43.685 105.18 43.685 106.248V111.216H42.407V101.748H43.631V103.494C43.979 102.918 44.459 102.474 45.071 102.162C45.695 101.838 46.415 101.676 47.231 101.676ZM58.0986 106.464L55.8666 108.516V111.216H54.5886V97.8603H55.8666V106.914L61.5186 101.748H63.1026L59.0526 105.618L63.4806 111.216H61.9146L58.0986 106.464ZM78.0661 101.748L73.3321 112.35C72.9481 113.238 72.5041 113.868 72.0001 114.24C71.4961 114.612 70.8901 114.798 70.1821 114.798C69.7261 114.798 69.3001 114.726 68.9041 114.582C68.5081 114.438 68.1661 114.222 67.8781 113.934L68.4721 112.98C68.9521 113.46 69.5281 113.7 70.2001 113.7C70.6321 113.7 70.9981 113.58 71.2981 113.34C71.6101 113.1 71.8981 112.692 72.1621 112.116L72.5761 111.198L68.3461 101.748H69.6781L73.2421 109.794L76.8061 101.748H78.0661ZM83.4723 111.306C82.5603 111.306 81.7383 111.102 81.0063 110.694C80.2743 110.274 79.6983 109.698 79.2783 108.966C78.8583 108.234 78.6483 107.406 78.6483 106.482C78.6483 105.558 78.8583 104.73 79.2783 103.998C79.6983 103.266 80.2743 102.696 81.0063 102.288C81.7383 101.88 82.5603 101.676 83.4723 101.676C84.3843 101.676 85.2063 101.88 85.9383 102.288C86.6703 102.696 87.2403 103.266 87.6483 103.998C88.0683 104.73 88.2783 105.558 88.2783 106.482C88.2783 107.406 88.0683 108.234 87.6483 108.966C87.2403 109.698 86.6703 110.274 85.9383 110.694C85.2063 111.102 84.3843 111.306 83.4723 111.306ZM83.4723 110.172C84.1443 110.172 84.7443 110.022 85.2723 109.722C85.8123 109.41 86.2323 108.972 86.5323 108.408C86.8323 107.844 86.9823 107.202 86.9823 106.482C86.9823 105.762 86.8323 105.12 86.5323 104.556C86.2323 103.992 85.8123 103.56 85.2723 103.26C84.7443 102.948 84.1443 102.792 83.4723 102.792C82.8003 102.792 82.1943 102.948 81.6543 103.26C81.1263 103.56 80.7063 103.992 80.3943 104.556C80.0943 105.12 79.9443 105.762 79.9443 106.482C79.9443 107.202 80.0943 107.844 80.3943 108.408C80.7063 108.972 81.1263 109.41 81.6543 109.722C82.1943 110.022 82.8003 110.172 83.4723 110.172ZM99.4195 101.748V111.216H98.1955V109.488C97.8595 110.064 97.3975 110.514 96.8095 110.838C96.2215 111.15 95.5495 111.306 94.7935 111.306C93.5575 111.306 92.5795 110.964 91.8595 110.28C91.1515 109.584 90.7975 108.57 90.7975 107.238V101.748H92.0755V107.112C92.0755 108.108 92.3215 108.864 92.8135 109.38C93.3055 109.896 94.0075 110.154 94.9195 110.154C95.9155 110.154 96.7015 109.854 97.2775 109.254C97.8535 108.642 98.1415 107.796 98.1415 106.716V101.748H99.4195ZM103.143 109.344C103.419 109.344 103.647 109.44 103.827 109.632C104.007 109.812 104.097 110.04 104.097 110.316C104.097 110.46 104.073 110.616 104.025 110.784C103.989 110.952 103.929 111.144 103.845 111.36L103.089 113.844H102.225L102.837 111.234C102.645 111.174 102.489 111.066 102.369 110.91C102.249 110.742 102.189 110.544 102.189 110.316C102.189 110.04 102.279 109.812 102.459 109.632C102.639 109.44 102.867 109.344 103.143 109.344ZM116.348 101.676C117.536 101.676 118.478 102.024 119.174 102.72C119.882 103.404 120.236 104.406 120.236 105.726V111.216H118.958V105.852C118.958 104.868 118.712 104.118 118.22 103.602C117.728 103.086 117.026 102.828 116.114 102.828C115.094 102.828 114.284 103.134 113.684 103.746C113.096 104.346 112.802 105.18 112.802 106.248V111.216H111.524V101.748H112.748V103.494C113.096 102.918 113.576 102.474 114.188 102.162C114.812 101.838 115.532 101.676 116.348 101.676ZM131.985 106.878H124.065C124.137 107.862 124.515 108.66 125.199 109.272C125.883 109.872 126.747 110.172 127.791 110.172C128.379 110.172 128.919 110.07 129.411 109.866C129.903 109.65 130.329 109.338 130.689 108.93L131.409 109.758C130.989 110.262 130.461 110.646 129.825 110.91C129.201 111.174 128.511 111.306 127.755 111.306C126.783 111.306 125.919 111.102 125.163 110.694C124.419 110.274 123.837 109.698 123.417 108.966C122.997 108.234 122.787 107.406 122.787 106.482C122.787 105.558 122.985 104.73 123.381 103.998C123.789 103.266 124.341 102.696 125.037 102.288C125.745 101.88 126.537 101.676 127.413 101.676C128.289 101.676 129.075 101.88 129.771 102.288C130.467 102.696 131.013 103.266 131.409 103.998C131.805 104.718 132.003 105.546 132.003 106.482L131.985 106.878ZM127.413 102.774C126.501 102.774 125.733 103.068 125.109 103.656C124.497 104.232 124.149 104.988 124.065 105.924H130.779C130.695 104.988 130.341 104.232 129.717 103.656C129.105 103.068 128.337 102.774 127.413 102.774ZM140.371 111.216L137.365 107.256L134.341 111.216H132.901L136.645 106.356L133.081 101.748H134.521L137.365 105.456L140.209 101.748H141.613L138.049 106.356L141.829 111.216H140.371ZM148.942 110.64C148.702 110.856 148.402 111.024 148.042 111.144C147.694 111.252 147.328 111.306 146.944 111.306C146.056 111.306 145.372 111.066 144.892 110.586C144.412 110.106 144.172 109.428 144.172 108.552V102.828H142.48V101.748H144.172V99.6783H145.45V101.748H148.33V102.828H145.45V108.48C145.45 109.044 145.588 109.476 145.864 109.776C146.152 110.064 146.56 110.208 147.088 110.208C147.352 110.208 147.604 110.166 147.844 110.082C148.096 109.998 148.312 109.878 148.492 109.722L148.942 110.64Z" fill="#395F2E"/>
<defs>
<filter id="filter0_d" x="35" y="0" width="89.0811" height="89.0811" filterUnits="userSpaceOnUse" color-interpolation-filters="sRGB">
<feFlood flood-opacity="0" result="BackgroundImageFix"/>
<feColorMatrix in="SourceAlpha" type="matrix" values="0 0 0 0 0 0 0 0 0 0 0 0 0 0 0 0 0 0 127 0"/>
<feOffset dy="4"/>
<feGaussianBlur stdDeviation="2"/>
<feColorMatrix type="matrix" values="0 0 0 0 0 0 0 0 0 0 0 0 0 0 0 0 0 0 0.25 0"/>
<feBlend mode="normal" in2="BackgroundImageFix" result="effect1_dropShadow"/>
<feBlend mode="normal" in="SourceGraphic" in2="effect1_dropShadow" result="shape"/>
</filter>
</defs>
</svg>
