<svg width="160" height="117" viewBox="0 0 160 117" fill="none" xmlns="http://www.w3.org/2000/svg">
<g filter="url(#filter0_d)">
<circle cx="79.7027" cy="40.5405" r="40.5405" fill="#5F8953"/>
</g>
<path d="M79.0271 59.6422L76.1696 57.0409C66.0203 47.8376 59.3199 41.7678 59.3199 34.3185C59.3199 28.2486 64.089 23.4795 70.1589 23.4795C73.5879 23.4795 76.879 25.0758 79.0271 27.5983C81.1752 25.0758 84.4663 23.4795 87.8954 23.4795C93.9652 23.4795 98.7343 28.2486 98.7343 34.3185C98.7343 41.7678 92.0339 47.8376 81.8847 57.0606L79.0271 59.6422Z" fill="#FEF1EE"/>
<path d="M72.8191 101.748L68.0851 112.35C67.7011 113.238 67.2571 113.868 66.7531 114.24C66.2491 114.612 65.6431 114.798 64.9351 114.798C64.4791 114.798 64.0531 114.726 63.6571 114.582C63.2611 114.438 62.9191 114.222 62.6311 113.934L63.2251 112.98C63.7051 113.46 64.2811 113.7 64.9531 113.7C65.3851 113.7 65.7511 113.58 66.0511 113.34C66.3631 113.1 66.6511 112.692 66.9151 112.116L67.3291 111.198L63.0991 101.748H64.4311L67.9951 109.794L71.5591 101.748H72.8191ZM82.5992 106.878H74.6792C74.7512 107.862 75.1292 108.66 75.8132 109.272C76.4972 109.872 77.3612 110.172 78.4052 110.172C78.9932 110.172 79.5332 110.07 80.0252 109.866C80.5172 109.65 80.9432 109.338 81.3032 108.93L82.0232 109.758C81.6032 110.262 81.0752 110.646 80.4392 110.91C79.8152 111.174 79.1252 111.306 78.3692 111.306C77.3972 111.306 76.5332 111.102 75.7772 110.694C75.0332 110.274 74.4512 109.698 74.0312 108.966C73.6112 108.234 73.4012 107.406 73.4012 106.482C73.4012 105.558 73.5992 104.73 73.9952 103.998C74.4032 103.266 74.9552 102.696 75.6512 102.288C76.3592 101.88 77.1512 101.676 78.0272 101.676C78.9032 101.676 79.6892 101.88 80.3852 102.288C81.0812 102.696 81.6272 103.266 82.0232 103.998C82.4192 104.718 82.6172 105.546 82.6172 106.482L82.5992 106.878ZM78.0272 102.774C77.1152 102.774 76.3472 103.068 75.7232 103.656C75.1112 104.232 74.7632 104.988 74.6792 105.924H81.3932C81.3092 104.988 80.9552 104.232 80.3312 103.656C79.7192 103.068 78.9512 102.774 78.0272 102.774ZM87.7565 111.306C86.9885 111.306 86.2505 111.198 85.5425 110.982C84.8465 110.754 84.3005 110.472 83.9045 110.136L84.4805 109.128C84.8765 109.44 85.3745 109.698 85.9745 109.902C86.5745 110.094 87.1985 110.19 87.8465 110.19C88.7105 110.19 89.3465 110.058 89.7545 109.794C90.1745 109.518 90.3845 109.134 90.3845 108.642C90.3845 108.294 90.2705 108.024 90.0425 107.832C89.8145 107.628 89.5265 107.478 89.1785 107.382C88.8305 107.274 88.3685 107.172 87.7925 107.076C87.0245 106.932 86.4065 106.788 85.9385 106.644C85.4705 106.488 85.0685 106.23 84.7325 105.87C84.4085 105.51 84.2465 105.012 84.2465 104.376C84.2465 103.584 84.5765 102.936 85.2365 102.432C85.8965 101.928 86.8145 101.676 87.9905 101.676C88.6025 101.676 89.2145 101.76 89.8265 101.928C90.4385 102.084 90.9425 102.294 91.3385 102.558L90.7805 103.584C90.0005 103.044 89.0705 102.774 87.9905 102.774C87.1745 102.774 86.5565 102.918 86.1365 103.206C85.7285 103.494 85.5245 103.872 85.5245 104.34C85.5245 104.7 85.6385 104.988 85.8665 105.204C86.1065 105.42 86.4005 105.582 86.7485 105.69C87.0965 105.786 87.5765 105.888 88.1885 105.996C88.9445 106.14 89.5505 106.284 90.0065 106.428C90.4625 106.572 90.8525 106.818 91.1765 107.166C91.5005 107.514 91.6625 107.994 91.6625 108.606C91.6625 109.434 91.3145 110.094 90.6185 110.586C89.9345 111.066 88.9805 111.306 87.7565 111.306ZM93.8272 98.6163H95.3392L95.0692 107.436H94.0792L93.8272 98.6163ZM94.5832 111.306C94.3192 111.306 94.0912 111.216 93.8992 111.036C93.7192 110.844 93.6292 110.622 93.6292 110.37C93.6292 110.106 93.7192 109.89 93.8992 109.722C94.0792 109.542 94.3072 109.452 94.5832 109.452C94.8472 109.452 95.0692 109.542 95.2492 109.722C95.4292 109.89 95.5192 110.106 95.5192 110.37C95.5192 110.622 95.4292 110.844 95.2492 111.036C95.0692 111.216 94.8472 111.306 94.5832 111.306Z" fill="#395F2E"/>
<defs>
<filter id="filter0_d" x="35.1622" y="0" width="89.0811" height="89.0811" filterUnits="userSpaceOnUse" color-interpolation-filters="sRGB">
<feFlood flood-opacity="0" result="BackgroundImageFix"/>
<feColorMatrix in="SourceAlpha" type="matrix" values="0 0 0 0 0 0 0 0 0 0 0 0 0 0 0 0 0 0 127 0"/>
<feOffset dy="4"/>
<feGaussianBlur stdDeviation="2"/>
<feColorMatrix type="matrix" values="0 0 0 0 0 0 0 0 0 0 0 0 0 0 0 0 0 0 0.25 0"/>
<feBlend mode="normal" in2="BackgroundImageFix" result="effect1_dropShadow"/>
<feBlend mode="normal" in="SourceGraphic" in2="effect1_dropShadow" result="shape"/>
</filter>
</defs>
</svg>
